<mxfile host="Electron" agent="Mozilla/5.0 (Windows NT 10.0; Win64; x64) AppleWebKit/537.36 (KHTML, like Gecko) draw.io/27.0.9 Chrome/134.0.6998.205 Electron/35.4.0 Safari/537.36" version="27.0.9" pages="2">
  <diagram name="Use Case Diagram" id="ZrGx_r4Ws7o6_XeFInN-">
    <mxGraphModel dx="784" dy="626" grid="1" gridSize="10" guides="1" tooltips="1" connect="1" arrows="1" fold="1" page="1" pageScale="1" pageWidth="827" pageHeight="1169" math="0" shadow="0">
      <root>
        <mxCell id="0" />
        <mxCell id="1" parent="0" />
        <mxCell id="dI6f3g1Ya-E7yFUXVetm-1" value="Pharmacist" style="shape=umlActor;verticalLabelPosition=bottom;verticalAlign=top;html=1;outlineConnect=0;" parent="1" vertex="1">
          <mxGeometry x="130" y="430" width="30" height="60" as="geometry" />
        </mxCell>
        <mxCell id="dI6f3g1Ya-E7yFUXVetm-2" value="Admin" style="shape=umlActor;verticalLabelPosition=bottom;verticalAlign=top;html=1;outlineConnect=0;" parent="1" vertex="1">
          <mxGeometry x="930" y="250" width="30" height="60" as="geometry" />
        </mxCell>
        <mxCell id="dI6f3g1Ya-E7yFUXVetm-3" value="Doctor" style="shape=umlActor;verticalLabelPosition=bottom;verticalAlign=top;html=1;outlineConnect=0;" parent="1" vertex="1">
          <mxGeometry x="100" y="130" width="30" height="60" as="geometry" />
        </mxCell>
        <mxCell id="dI6f3g1Ya-E7yFUXVetm-8" value="" style="rounded=0;whiteSpace=wrap;html=1;movable=1;resizable=1;rotatable=1;deletable=1;editable=1;locked=0;connectable=1;" parent="1" vertex="1">
          <mxGeometry x="213" y="50" width="620" height="660" as="geometry" />
        </mxCell>
        <mxCell id="bj0rJm68irUV_aDJCn1R-1" value="Drug Dispensary System" style="text;html=1;align=center;verticalAlign=middle;whiteSpace=wrap;rounded=0;movable=1;resizable=1;rotatable=1;deletable=1;editable=1;locked=0;connectable=1;" parent="1" vertex="1">
          <mxGeometry x="447.5" y="60" width="125" height="30" as="geometry" />
        </mxCell>
        <mxCell id="bj0rJm68irUV_aDJCn1R-3" value="Register User" style="ellipse;whiteSpace=wrap;html=1;" parent="1" vertex="1">
          <mxGeometry x="542.5" y="190" width="117.5" height="54" as="geometry" />
        </mxCell>
        <mxCell id="bj0rJm68irUV_aDJCn1R-7" value="Remove User" style="ellipse;whiteSpace=wrap;html=1;" parent="1" vertex="1">
          <mxGeometry x="560" y="310" width="117.5" height="58" as="geometry" />
        </mxCell>
        <mxCell id="bj0rJm68irUV_aDJCn1R-8" value="Update User Info" style="ellipse;whiteSpace=wrap;html=1;" parent="1" vertex="1">
          <mxGeometry x="660" y="352" width="117.5" height="56" as="geometry" />
        </mxCell>
        <mxCell id="bj0rJm68irUV_aDJCn1R-9" value="Login" style="ellipse;whiteSpace=wrap;html=1;" parent="1" vertex="1">
          <mxGeometry x="414" y="280" width="122.5" height="50" as="geometry" />
        </mxCell>
        <mxCell id="bj0rJm68irUV_aDJCn1R-10" value="Update Prescription Status" style="ellipse;whiteSpace=wrap;html=1;" parent="1" vertex="1">
          <mxGeometry x="300" y="480" width="120" height="60" as="geometry" />
        </mxCell>
        <mxCell id="bj0rJm68irUV_aDJCn1R-11" value="Log Prescription in via code" style="ellipse;whiteSpace=wrap;html=1;" parent="1" vertex="1">
          <mxGeometry x="295" y="380" width="130" height="60" as="geometry" />
        </mxCell>
        <mxCell id="bj0rJm68irUV_aDJCn1R-12" value="Create Prescription" style="ellipse;whiteSpace=wrap;html=1;" parent="1" vertex="1">
          <mxGeometry x="310" y="90" width="120" height="61" as="geometry" />
        </mxCell>
        <mxCell id="bj0rJm68irUV_aDJCn1R-13" value="View All Prescriptions&amp;nbsp;&lt;div&gt;Created&lt;/div&gt;" style="ellipse;whiteSpace=wrap;html=1;" parent="1" vertex="1">
          <mxGeometry x="330" y="201" width="140" height="60" as="geometry" />
        </mxCell>
        <mxCell id="bj0rJm68irUV_aDJCn1R-14" value="View All Prescriptions&amp;nbsp;&lt;div&gt;Marked as Done&lt;/div&gt;" style="ellipse;whiteSpace=wrap;html=1;" parent="1" vertex="1">
          <mxGeometry x="274" y="620" width="140" height="56" as="geometry" />
        </mxCell>
        <mxCell id="ldcLRiGL4YaIcPlLNYpW-1" value="" style="endArrow=none;html=1;rounded=0;exitX=1;exitY=0.5;exitDx=0;exitDy=0;entryX=0.5;entryY=0.5;entryDx=0;entryDy=0;entryPerimeter=0;" edge="1" parent="1" source="bj0rJm68irUV_aDJCn1R-3" target="dI6f3g1Ya-E7yFUXVetm-2">
          <mxGeometry width="50" height="50" relative="1" as="geometry">
            <mxPoint x="390" y="320" as="sourcePoint" />
            <mxPoint x="800" y="230" as="targetPoint" />
          </mxGeometry>
        </mxCell>
        <mxCell id="ldcLRiGL4YaIcPlLNYpW-3" value="" style="endArrow=none;html=1;rounded=0;exitX=1;exitY=0.5;exitDx=0;exitDy=0;entryX=0.5;entryY=0.5;entryDx=0;entryDy=0;entryPerimeter=0;" edge="1" parent="1" source="bj0rJm68irUV_aDJCn1R-7" target="dI6f3g1Ya-E7yFUXVetm-2">
          <mxGeometry width="50" height="50" relative="1" as="geometry">
            <mxPoint x="690" y="355" as="sourcePoint" />
            <mxPoint x="767" y="270" as="targetPoint" />
          </mxGeometry>
        </mxCell>
        <mxCell id="ldcLRiGL4YaIcPlLNYpW-4" value="" style="endArrow=none;html=1;rounded=0;exitX=1;exitY=0.5;exitDx=0;exitDy=0;entryX=0.5;entryY=0.5;entryDx=0;entryDy=0;entryPerimeter=0;" edge="1" parent="1" source="bj0rJm68irUV_aDJCn1R-8" target="dI6f3g1Ya-E7yFUXVetm-2">
          <mxGeometry width="50" height="50" relative="1" as="geometry">
            <mxPoint x="670" y="465" as="sourcePoint" />
            <mxPoint x="747" y="380" as="targetPoint" />
          </mxGeometry>
        </mxCell>
        <mxCell id="ldcLRiGL4YaIcPlLNYpW-8" value="" style="endArrow=none;html=1;rounded=0;exitX=1;exitY=0.5;exitDx=0;exitDy=0;entryX=0.5;entryY=0.5;entryDx=0;entryDy=0;entryPerimeter=0;" edge="1" parent="1" source="bj0rJm68irUV_aDJCn1R-9" target="dI6f3g1Ya-E7yFUXVetm-2">
          <mxGeometry width="50" height="50" relative="1" as="geometry">
            <mxPoint x="710" y="365" as="sourcePoint" />
            <mxPoint x="840" y="250" as="targetPoint" />
          </mxGeometry>
        </mxCell>
        <mxCell id="ldcLRiGL4YaIcPlLNYpW-9" value="" style="endArrow=none;html=1;rounded=0;exitX=0.5;exitY=0.5;exitDx=0;exitDy=0;exitPerimeter=0;entryX=0;entryY=0.5;entryDx=0;entryDy=0;" edge="1" parent="1" source="dI6f3g1Ya-E7yFUXVetm-1" target="bj0rJm68irUV_aDJCn1R-10">
          <mxGeometry width="50" height="50" relative="1" as="geometry">
            <mxPoint x="280" y="390" as="sourcePoint" />
            <mxPoint x="330" y="340" as="targetPoint" />
          </mxGeometry>
        </mxCell>
        <mxCell id="ldcLRiGL4YaIcPlLNYpW-10" value="" style="endArrow=none;html=1;rounded=0;exitX=0.5;exitY=0.5;exitDx=0;exitDy=0;exitPerimeter=0;entryX=0;entryY=0.5;entryDx=0;entryDy=0;" edge="1" parent="1" source="dI6f3g1Ya-E7yFUXVetm-1" target="bj0rJm68irUV_aDJCn1R-14">
          <mxGeometry width="50" height="50" relative="1" as="geometry">
            <mxPoint x="290" y="460" as="sourcePoint" />
            <mxPoint x="390" y="410" as="targetPoint" />
          </mxGeometry>
        </mxCell>
        <mxCell id="ldcLRiGL4YaIcPlLNYpW-11" value="" style="endArrow=none;html=1;rounded=0;exitX=0.5;exitY=0.5;exitDx=0;exitDy=0;exitPerimeter=0;entryX=0;entryY=0.5;entryDx=0;entryDy=0;" edge="1" parent="1" source="dI6f3g1Ya-E7yFUXVetm-1" target="bj0rJm68irUV_aDJCn1R-11">
          <mxGeometry width="50" height="50" relative="1" as="geometry">
            <mxPoint x="280" y="520" as="sourcePoint" />
            <mxPoint x="375" y="548" as="targetPoint" />
          </mxGeometry>
        </mxCell>
        <mxCell id="ldcLRiGL4YaIcPlLNYpW-12" value="" style="endArrow=none;html=1;rounded=0;exitX=0.5;exitY=0.5;exitDx=0;exitDy=0;exitPerimeter=0;entryX=0;entryY=0.5;entryDx=0;entryDy=0;" edge="1" parent="1" source="dI6f3g1Ya-E7yFUXVetm-1" target="bj0rJm68irUV_aDJCn1R-9">
          <mxGeometry width="50" height="50" relative="1" as="geometry">
            <mxPoint x="290" y="530" as="sourcePoint" />
            <mxPoint x="390" y="625" as="targetPoint" />
          </mxGeometry>
        </mxCell>
        <mxCell id="ldcLRiGL4YaIcPlLNYpW-13" value="" style="endArrow=none;html=1;rounded=0;exitX=0.5;exitY=0.5;exitDx=0;exitDy=0;exitPerimeter=0;entryX=0;entryY=0.5;entryDx=0;entryDy=0;" edge="1" parent="1" source="dI6f3g1Ya-E7yFUXVetm-3" target="bj0rJm68irUV_aDJCn1R-12">
          <mxGeometry width="50" height="50" relative="1" as="geometry">
            <mxPoint x="390" y="350" as="sourcePoint" />
            <mxPoint x="440" y="300" as="targetPoint" />
          </mxGeometry>
        </mxCell>
        <mxCell id="ldcLRiGL4YaIcPlLNYpW-14" value="" style="endArrow=none;html=1;rounded=0;exitX=0.5;exitY=0.5;exitDx=0;exitDy=0;exitPerimeter=0;entryX=0;entryY=0.5;entryDx=0;entryDy=0;" edge="1" parent="1" source="dI6f3g1Ya-E7yFUXVetm-3" target="bj0rJm68irUV_aDJCn1R-13">
          <mxGeometry width="50" height="50" relative="1" as="geometry">
            <mxPoint x="290" y="160" as="sourcePoint" />
            <mxPoint x="385" y="170" as="targetPoint" />
          </mxGeometry>
        </mxCell>
        <mxCell id="ldcLRiGL4YaIcPlLNYpW-15" value="" style="endArrow=none;html=1;rounded=0;exitX=0.5;exitY=0.5;exitDx=0;exitDy=0;exitPerimeter=0;entryX=0;entryY=0.5;entryDx=0;entryDy=0;" edge="1" parent="1" source="dI6f3g1Ya-E7yFUXVetm-3" target="bj0rJm68irUV_aDJCn1R-9">
          <mxGeometry width="50" height="50" relative="1" as="geometry">
            <mxPoint x="280" y="260" as="sourcePoint" />
            <mxPoint x="370" y="345" as="targetPoint" />
          </mxGeometry>
        </mxCell>
        <mxCell id="ldcLRiGL4YaIcPlLNYpW-23" value="Verify Credentials" style="ellipse;whiteSpace=wrap;html=1;" vertex="1" parent="1">
          <mxGeometry x="537.5" y="410" width="140" height="70" as="geometry" />
        </mxCell>
        <mxCell id="ldcLRiGL4YaIcPlLNYpW-30" value="&amp;lt;&amp;lt;extends&amp;gt;&amp;gt;" style="endArrow=open;endSize=12;dashed=1;html=1;rounded=0;entryX=0.5;entryY=1;entryDx=0;entryDy=0;" edge="1" parent="1" source="bj0rJm68irUV_aDJCn1R-10" target="bj0rJm68irUV_aDJCn1R-11">
          <mxGeometry width="160" relative="1" as="geometry">
            <mxPoint x="544" y="560" as="sourcePoint" />
            <mxPoint x="510" y="420" as="targetPoint" />
          </mxGeometry>
        </mxCell>
        <mxCell id="ldcLRiGL4YaIcPlLNYpW-31" value="Verify Prescription Code" style="ellipse;whiteSpace=wrap;html=1;" vertex="1" parent="1">
          <mxGeometry x="440" y="510" width="140" height="70" as="geometry" />
        </mxCell>
        <mxCell id="ldcLRiGL4YaIcPlLNYpW-32" value="&amp;lt;&amp;lt;includes&amp;gt;&amp;gt;" style="endArrow=open;endSize=12;dashed=1;html=1;rounded=0;entryX=0.5;entryY=0;entryDx=0;entryDy=0;exitX=1;exitY=0.5;exitDx=0;exitDy=0;" edge="1" parent="1" source="bj0rJm68irUV_aDJCn1R-11" target="ldcLRiGL4YaIcPlLNYpW-31">
          <mxGeometry width="160" relative="1" as="geometry">
            <mxPoint x="360" y="560" as="sourcePoint" />
            <mxPoint x="366" y="600" as="targetPoint" />
          </mxGeometry>
        </mxCell>
        <mxCell id="ldcLRiGL4YaIcPlLNYpW-33" value="Verify User Info" style="ellipse;whiteSpace=wrap;html=1;" vertex="1" parent="1">
          <mxGeometry x="660" y="81" width="140" height="70" as="geometry" />
        </mxCell>
        <mxCell id="ldcLRiGL4YaIcPlLNYpW-35" value="&amp;lt;&amp;lt;include&amp;gt;&amp;gt;" style="html=1;verticalAlign=bottom;labelBackgroundColor=none;endArrow=open;endFill=0;dashed=1;rounded=0;exitX=0.5;exitY=0;exitDx=0;exitDy=0;entryX=0.5;entryY=1;entryDx=0;entryDy=0;" edge="1" parent="1" source="bj0rJm68irUV_aDJCn1R-3" target="ldcLRiGL4YaIcPlLNYpW-33">
          <mxGeometry width="160" relative="1" as="geometry">
            <mxPoint x="660" y="200" as="sourcePoint" />
            <mxPoint x="820" y="200" as="targetPoint" />
          </mxGeometry>
        </mxCell>
        <mxCell id="ldcLRiGL4YaIcPlLNYpW-36" value="&amp;lt;&amp;lt;include&amp;gt;&amp;gt;" style="html=1;verticalAlign=bottom;labelBackgroundColor=none;endArrow=open;endFill=0;dashed=1;rounded=0;exitX=0.5;exitY=0;exitDx=0;exitDy=0;entryX=0.943;entryY=0.718;entryDx=0;entryDy=0;entryPerimeter=0;" edge="1" parent="1" source="bj0rJm68irUV_aDJCn1R-8" target="ldcLRiGL4YaIcPlLNYpW-33">
          <mxGeometry width="160" relative="1" as="geometry">
            <mxPoint x="620" y="237" as="sourcePoint" />
            <mxPoint x="644" y="190" as="targetPoint" />
          </mxGeometry>
        </mxCell>
        <mxCell id="ldcLRiGL4YaIcPlLNYpW-37" value="&amp;lt;&amp;lt;include&amp;gt;&amp;gt;" style="html=1;verticalAlign=bottom;labelBackgroundColor=none;endArrow=open;endFill=0;dashed=1;rounded=0;exitX=0.5;exitY=0;exitDx=0;exitDy=0;entryX=0.5;entryY=1;entryDx=0;entryDy=0;" edge="1" parent="1" source="bj0rJm68irUV_aDJCn1R-7" target="bj0rJm68irUV_aDJCn1R-3">
          <mxGeometry width="160" relative="1" as="geometry">
            <mxPoint x="660" y="330" as="sourcePoint" />
            <mxPoint x="820" y="330" as="targetPoint" />
          </mxGeometry>
        </mxCell>
        <mxCell id="ldcLRiGL4YaIcPlLNYpW-38" value="&amp;lt;&amp;lt;include&amp;gt;&amp;gt;" style="html=1;verticalAlign=bottom;labelBackgroundColor=none;endArrow=open;endFill=0;dashed=1;rounded=0;exitX=0.389;exitY=0.08;exitDx=0;exitDy=0;entryX=1;entryY=1;entryDx=0;entryDy=0;exitPerimeter=0;" edge="1" parent="1" source="bj0rJm68irUV_aDJCn1R-8" target="bj0rJm68irUV_aDJCn1R-3">
          <mxGeometry width="160" relative="1" as="geometry">
            <mxPoint x="714" y="482" as="sourcePoint" />
            <mxPoint x="700" y="270" as="targetPoint" />
          </mxGeometry>
        </mxCell>
        <mxCell id="ldcLRiGL4YaIcPlLNYpW-39" value="&amp;lt;&amp;lt;include&amp;gt;&amp;gt;" style="html=1;verticalAlign=bottom;labelBackgroundColor=none;endArrow=open;endFill=0;dashed=1;rounded=0;exitX=0.666;exitY=0.939;exitDx=0;exitDy=0;exitPerimeter=0;entryX=0;entryY=0;entryDx=0;entryDy=0;" edge="1" parent="1" source="bj0rJm68irUV_aDJCn1R-9" target="ldcLRiGL4YaIcPlLNYpW-23">
          <mxGeometry width="160" relative="1" as="geometry">
            <mxPoint x="590" y="290" as="sourcePoint" />
            <mxPoint x="750" y="290" as="targetPoint" />
          </mxGeometry>
        </mxCell>
        <mxCell id="ldcLRiGL4YaIcPlLNYpW-40" value="&amp;lt;&amp;lt;include&amp;gt;&amp;gt;" style="html=1;verticalAlign=bottom;labelBackgroundColor=none;endArrow=open;endFill=0;dashed=1;rounded=0;exitX=0.5;exitY=0;exitDx=0;exitDy=0;entryX=0.656;entryY=0.936;entryDx=0;entryDy=0;entryPerimeter=0;" edge="1" parent="1" source="bj0rJm68irUV_aDJCn1R-13" target="bj0rJm68irUV_aDJCn1R-12">
          <mxGeometry width="160" relative="1" as="geometry">
            <mxPoint x="340" y="230" as="sourcePoint" />
            <mxPoint x="500" y="230" as="targetPoint" />
          </mxGeometry>
        </mxCell>
        <mxCell id="ldcLRiGL4YaIcPlLNYpW-49" value="&amp;lt;&amp;lt;include&amp;gt;&amp;gt;" style="html=1;verticalAlign=bottom;labelBackgroundColor=none;endArrow=open;endFill=0;dashed=1;rounded=0;exitX=0.5;exitY=0;exitDx=0;exitDy=0;" edge="1" parent="1" source="bj0rJm68irUV_aDJCn1R-14" target="bj0rJm68irUV_aDJCn1R-10">
          <mxGeometry width="160" relative="1" as="geometry">
            <mxPoint x="460" y="380" as="sourcePoint" />
            <mxPoint x="620" y="380" as="targetPoint" />
          </mxGeometry>
        </mxCell>
      </root>
    </mxGraphModel>
  </diagram>
  <diagram id="zFEVotT-vgakfOZTteO0" name="Class Diagram">
    <mxGraphModel dx="2652" dy="2104" grid="1" gridSize="10" guides="1" tooltips="1" connect="1" arrows="1" fold="1" page="1" pageScale="1" pageWidth="827" pageHeight="1169" math="0" shadow="0">
      <root>
        <mxCell id="0" />
        <mxCell id="1" parent="0" />
        <mxCell id="XrcHUc9gPPaBWGD-bMCw-1" value="Admin" style="swimlane;fontStyle=1;align=center;verticalAlign=top;childLayout=stackLayout;horizontal=1;startSize=26;horizontalStack=0;resizeParent=1;resizeParentMax=0;resizeLast=0;collapsible=1;marginBottom=0;whiteSpace=wrap;html=1;" parent="1" vertex="1">
          <mxGeometry x="560" width="160" height="110" as="geometry" />
        </mxCell>
        <mxCell id="XrcHUc9gPPaBWGD-bMCw-5" value="- username: String" style="text;strokeColor=none;fillColor=none;align=left;verticalAlign=top;spacingLeft=4;spacingRight=4;overflow=hidden;rotatable=0;points=[[0,0.5],[1,0.5]];portConstraint=eastwest;whiteSpace=wrap;html=1;" parent="XrcHUc9gPPaBWGD-bMCw-1" vertex="1">
          <mxGeometry y="26" width="160" height="24" as="geometry" />
        </mxCell>
        <mxCell id="XrcHUc9gPPaBWGD-bMCw-6" value="- password: String" style="text;strokeColor=none;fillColor=none;align=left;verticalAlign=top;spacingLeft=4;spacingRight=4;overflow=hidden;rotatable=0;points=[[0,0.5],[1,0.5]];portConstraint=eastwest;whiteSpace=wrap;html=1;" parent="XrcHUc9gPPaBWGD-bMCw-1" vertex="1">
          <mxGeometry y="50" width="160" height="26" as="geometry" />
        </mxCell>
        <mxCell id="XrcHUc9gPPaBWGD-bMCw-3" value="" style="line;strokeWidth=1;fillColor=none;align=left;verticalAlign=middle;spacingTop=-1;spacingLeft=3;spacingRight=3;rotatable=0;labelPosition=right;points=[];portConstraint=eastwest;strokeColor=inherit;" parent="XrcHUc9gPPaBWGD-bMCw-1" vertex="1">
          <mxGeometry y="76" width="160" height="8" as="geometry" />
        </mxCell>
        <mxCell id="XrcHUc9gPPaBWGD-bMCw-4" value="Setters and Getters" style="text;strokeColor=none;fillColor=none;align=left;verticalAlign=top;spacingLeft=4;spacingRight=4;overflow=hidden;rotatable=0;points=[[0,0.5],[1,0.5]];portConstraint=eastwest;whiteSpace=wrap;html=1;" parent="XrcHUc9gPPaBWGD-bMCw-1" vertex="1">
          <mxGeometry y="84" width="160" height="26" as="geometry" />
        </mxCell>
        <mxCell id="fIdsKdYH5hgE794KYIwS-1" value="Doctor" style="swimlane;fontStyle=1;align=center;verticalAlign=top;childLayout=stackLayout;horizontal=1;startSize=26;horizontalStack=0;resizeParent=1;resizeParentMax=0;resizeLast=0;collapsible=1;marginBottom=0;whiteSpace=wrap;html=1;" parent="1" vertex="1">
          <mxGeometry x="310" width="210" height="214" as="geometry" />
        </mxCell>
        <mxCell id="fIdsKdYH5hgE794KYIwS-2" value="- id: String" style="text;strokeColor=none;fillColor=none;align=left;verticalAlign=top;spacingLeft=4;spacingRight=4;overflow=hidden;rotatable=0;points=[[0,0.5],[1,0.5]];portConstraint=eastwest;whiteSpace=wrap;html=1;" parent="fIdsKdYH5hgE794KYIwS-1" vertex="1">
          <mxGeometry y="26" width="210" height="24" as="geometry" />
        </mxCell>
        <mxCell id="fIdsKdYH5hgE794KYIwS-3" value="- firstname: String" style="text;strokeColor=none;fillColor=none;align=left;verticalAlign=top;spacingLeft=4;spacingRight=4;overflow=hidden;rotatable=0;points=[[0,0.5],[1,0.5]];portConstraint=eastwest;whiteSpace=wrap;html=1;" parent="fIdsKdYH5hgE794KYIwS-1" vertex="1">
          <mxGeometry y="50" width="210" height="26" as="geometry" />
        </mxCell>
        <mxCell id="fIdsKdYH5hgE794KYIwS-16" value="- lastname: String" style="text;strokeColor=none;fillColor=none;align=left;verticalAlign=top;spacingLeft=4;spacingRight=4;overflow=hidden;rotatable=0;points=[[0,0.5],[1,0.5]];portConstraint=eastwest;whiteSpace=wrap;html=1;" parent="fIdsKdYH5hgE794KYIwS-1" vertex="1">
          <mxGeometry y="76" width="210" height="26" as="geometry" />
        </mxCell>
        <mxCell id="fIdsKdYH5hgE794KYIwS-17" value="- specialization: Specialization" style="text;strokeColor=none;fillColor=none;align=left;verticalAlign=top;spacingLeft=4;spacingRight=4;overflow=hidden;rotatable=0;points=[[0,0.5],[1,0.5]];portConstraint=eastwest;whiteSpace=wrap;html=1;" parent="fIdsKdYH5hgE794KYIwS-1" vertex="1">
          <mxGeometry y="102" width="210" height="26" as="geometry" />
        </mxCell>
        <mxCell id="fIdsKdYH5hgE794KYIwS-18" value="- email: String" style="text;strokeColor=none;fillColor=none;align=left;verticalAlign=top;spacingLeft=4;spacingRight=4;overflow=hidden;rotatable=0;points=[[0,0.5],[1,0.5]];portConstraint=eastwest;whiteSpace=wrap;html=1;" parent="fIdsKdYH5hgE794KYIwS-1" vertex="1">
          <mxGeometry y="128" width="210" height="26" as="geometry" />
        </mxCell>
        <mxCell id="fIdsKdYH5hgE794KYIwS-20" value="- password: String" style="text;strokeColor=none;fillColor=none;align=left;verticalAlign=top;spacingLeft=4;spacingRight=4;overflow=hidden;rotatable=0;points=[[0,0.5],[1,0.5]];portConstraint=eastwest;whiteSpace=wrap;html=1;" parent="fIdsKdYH5hgE794KYIwS-1" vertex="1">
          <mxGeometry y="154" width="210" height="26" as="geometry" />
        </mxCell>
        <mxCell id="fIdsKdYH5hgE794KYIwS-4" value="" style="line;strokeWidth=1;fillColor=none;align=left;verticalAlign=middle;spacingTop=-1;spacingLeft=3;spacingRight=3;rotatable=0;labelPosition=right;points=[];portConstraint=eastwest;strokeColor=inherit;" parent="fIdsKdYH5hgE794KYIwS-1" vertex="1">
          <mxGeometry y="180" width="210" height="8" as="geometry" />
        </mxCell>
        <mxCell id="fIdsKdYH5hgE794KYIwS-5" value="Setters and Getters" style="text;strokeColor=none;fillColor=none;align=left;verticalAlign=top;spacingLeft=4;spacingRight=4;overflow=hidden;rotatable=0;points=[[0,0.5],[1,0.5]];portConstraint=eastwest;whiteSpace=wrap;html=1;" parent="fIdsKdYH5hgE794KYIwS-1" vertex="1">
          <mxGeometry y="188" width="210" height="26" as="geometry" />
        </mxCell>
        <mxCell id="fIdsKdYH5hgE794KYIwS-6" value="Pharmacist" style="swimlane;fontStyle=1;align=center;verticalAlign=top;childLayout=stackLayout;horizontal=1;startSize=26;horizontalStack=0;resizeParent=1;resizeParentMax=0;resizeLast=0;collapsible=1;marginBottom=0;whiteSpace=wrap;html=1;" parent="1" vertex="1">
          <mxGeometry x="770" width="160" height="162" as="geometry" />
        </mxCell>
        <mxCell id="fIdsKdYH5hgE794KYIwS-7" value="- id: String" style="text;strokeColor=none;fillColor=none;align=left;verticalAlign=top;spacingLeft=4;spacingRight=4;overflow=hidden;rotatable=0;points=[[0,0.5],[1,0.5]];portConstraint=eastwest;whiteSpace=wrap;html=1;" parent="fIdsKdYH5hgE794KYIwS-6" vertex="1">
          <mxGeometry y="26" width="160" height="24" as="geometry" />
        </mxCell>
        <mxCell id="fIdsKdYH5hgE794KYIwS-8" value="- firstname: String" style="text;strokeColor=none;fillColor=none;align=left;verticalAlign=top;spacingLeft=4;spacingRight=4;overflow=hidden;rotatable=0;points=[[0,0.5],[1,0.5]];portConstraint=eastwest;whiteSpace=wrap;html=1;" parent="fIdsKdYH5hgE794KYIwS-6" vertex="1">
          <mxGeometry y="50" width="160" height="26" as="geometry" />
        </mxCell>
        <mxCell id="fIdsKdYH5hgE794KYIwS-32" value="- lastname: String" style="text;strokeColor=none;fillColor=none;align=left;verticalAlign=top;spacingLeft=4;spacingRight=4;overflow=hidden;rotatable=0;points=[[0,0.5],[1,0.5]];portConstraint=eastwest;whiteSpace=wrap;html=1;" parent="fIdsKdYH5hgE794KYIwS-6" vertex="1">
          <mxGeometry y="76" width="160" height="26" as="geometry" />
        </mxCell>
        <mxCell id="fIdsKdYH5hgE794KYIwS-33" value="- password: String" style="text;strokeColor=none;fillColor=none;align=left;verticalAlign=top;spacingLeft=4;spacingRight=4;overflow=hidden;rotatable=0;points=[[0,0.5],[1,0.5]];portConstraint=eastwest;whiteSpace=wrap;html=1;" parent="fIdsKdYH5hgE794KYIwS-6" vertex="1">
          <mxGeometry y="102" width="160" height="26" as="geometry" />
        </mxCell>
        <mxCell id="fIdsKdYH5hgE794KYIwS-9" value="" style="line;strokeWidth=1;fillColor=none;align=left;verticalAlign=middle;spacingTop=-1;spacingLeft=3;spacingRight=3;rotatable=0;labelPosition=right;points=[];portConstraint=eastwest;strokeColor=inherit;" parent="fIdsKdYH5hgE794KYIwS-6" vertex="1">
          <mxGeometry y="128" width="160" height="8" as="geometry" />
        </mxCell>
        <mxCell id="fIdsKdYH5hgE794KYIwS-10" value="Setters and Getters" style="text;strokeColor=none;fillColor=none;align=left;verticalAlign=top;spacingLeft=4;spacingRight=4;overflow=hidden;rotatable=0;points=[[0,0.5],[1,0.5]];portConstraint=eastwest;whiteSpace=wrap;html=1;" parent="fIdsKdYH5hgE794KYIwS-6" vertex="1">
          <mxGeometry y="136" width="160" height="26" as="geometry" />
        </mxCell>
        <mxCell id="fIdsKdYH5hgE794KYIwS-11" value="Prescription" style="swimlane;fontStyle=1;align=center;verticalAlign=top;childLayout=stackLayout;horizontal=1;startSize=26;horizontalStack=0;resizeParent=1;resizeParentMax=0;resizeLast=0;collapsible=1;marginBottom=0;whiteSpace=wrap;html=1;" parent="1" vertex="1">
          <mxGeometry x="60" y="110" width="210" height="266" as="geometry" />
        </mxCell>
        <mxCell id="fIdsKdYH5hgE794KYIwS-12" value="- prescriptionCode: String" style="text;strokeColor=none;fillColor=none;align=left;verticalAlign=top;spacingLeft=4;spacingRight=4;overflow=hidden;rotatable=0;points=[[0,0.5],[1,0.5]];portConstraint=eastwest;whiteSpace=wrap;html=1;" parent="fIdsKdYH5hgE794KYIwS-11" vertex="1">
          <mxGeometry y="26" width="210" height="24" as="geometry" />
        </mxCell>
        <mxCell id="fIdsKdYH5hgE794KYIwS-13" value="- doctorId: String" style="text;strokeColor=none;fillColor=none;align=left;verticalAlign=top;spacingLeft=4;spacingRight=4;overflow=hidden;rotatable=0;points=[[0,0.5],[1,0.5]];portConstraint=eastwest;whiteSpace=wrap;html=1;" parent="fIdsKdYH5hgE794KYIwS-11" vertex="1">
          <mxGeometry y="50" width="210" height="26" as="geometry" />
        </mxCell>
        <mxCell id="fIdsKdYH5hgE794KYIwS-21" value="- patientId: String" style="text;strokeColor=none;fillColor=none;align=left;verticalAlign=top;spacingLeft=4;spacingRight=4;overflow=hidden;rotatable=0;points=[[0,0.5],[1,0.5]];portConstraint=eastwest;whiteSpace=wrap;html=1;" parent="fIdsKdYH5hgE794KYIwS-11" vertex="1">
          <mxGeometry y="76" width="210" height="26" as="geometry" />
        </mxCell>
        <mxCell id="fIdsKdYH5hgE794KYIwS-22" value="- pharmacistId: String" style="text;strokeColor=none;fillColor=none;align=left;verticalAlign=top;spacingLeft=4;spacingRight=4;overflow=hidden;rotatable=0;points=[[0,0.5],[1,0.5]];portConstraint=eastwest;whiteSpace=wrap;html=1;" parent="fIdsKdYH5hgE794KYIwS-11" vertex="1">
          <mxGeometry y="102" width="210" height="26" as="geometry" />
        </mxCell>
        <mxCell id="fIdsKdYH5hgE794KYIwS-23" value="- drugs: List&amp;lt;Drug&amp;gt;" style="text;strokeColor=none;fillColor=none;align=left;verticalAlign=top;spacingLeft=4;spacingRight=4;overflow=hidden;rotatable=0;points=[[0,0.5],[1,0.5]];portConstraint=eastwest;whiteSpace=wrap;html=1;" parent="fIdsKdYH5hgE794KYIwS-11" vertex="1">
          <mxGeometry y="128" width="210" height="26" as="geometry" />
        </mxCell>
        <mxCell id="fIdsKdYH5hgE794KYIwS-24" value="- status: PrescriptionStatus" style="text;strokeColor=none;fillColor=none;align=left;verticalAlign=top;spacingLeft=4;spacingRight=4;overflow=hidden;rotatable=0;points=[[0,0.5],[1,0.5]];portConstraint=eastwest;whiteSpace=wrap;html=1;" parent="fIdsKdYH5hgE794KYIwS-11" vertex="1">
          <mxGeometry y="154" width="210" height="26" as="geometry" />
        </mxCell>
        <mxCell id="fIdsKdYH5hgE794KYIwS-25" value="- dateCreated: LocalDateTime" style="text;strokeColor=none;fillColor=none;align=left;verticalAlign=top;spacingLeft=4;spacingRight=4;overflow=hidden;rotatable=0;points=[[0,0.5],[1,0.5]];portConstraint=eastwest;whiteSpace=wrap;html=1;" parent="fIdsKdYH5hgE794KYIwS-11" vertex="1">
          <mxGeometry y="180" width="210" height="26" as="geometry" />
        </mxCell>
        <mxCell id="fIdsKdYH5hgE794KYIwS-26" value="- dateDispensed: LocalDateTime" style="text;strokeColor=none;fillColor=none;align=left;verticalAlign=top;spacingLeft=4;spacingRight=4;overflow=hidden;rotatable=0;points=[[0,0.5],[1,0.5]];portConstraint=eastwest;whiteSpace=wrap;html=1;" parent="fIdsKdYH5hgE794KYIwS-11" vertex="1">
          <mxGeometry y="206" width="210" height="26" as="geometry" />
        </mxCell>
        <mxCell id="fIdsKdYH5hgE794KYIwS-14" value="" style="line;strokeWidth=1;fillColor=none;align=left;verticalAlign=middle;spacingTop=-1;spacingLeft=3;spacingRight=3;rotatable=0;labelPosition=right;points=[];portConstraint=eastwest;strokeColor=inherit;" parent="fIdsKdYH5hgE794KYIwS-11" vertex="1">
          <mxGeometry y="232" width="210" height="8" as="geometry" />
        </mxCell>
        <mxCell id="fIdsKdYH5hgE794KYIwS-15" value="Setters and Getters" style="text;strokeColor=none;fillColor=none;align=left;verticalAlign=top;spacingLeft=4;spacingRight=4;overflow=hidden;rotatable=0;points=[[0,0.5],[1,0.5]];portConstraint=eastwest;whiteSpace=wrap;html=1;" parent="fIdsKdYH5hgE794KYIwS-11" vertex="1">
          <mxGeometry y="240" width="210" height="26" as="geometry" />
        </mxCell>
        <mxCell id="fIdsKdYH5hgE794KYIwS-27" value="&amp;lt;&amp;lt;enumeration&amp;gt;&amp;gt;&lt;div&gt;&lt;span style=&quot;text-align: left;&quot;&gt;PrescriptionStatus&lt;/span&gt;&lt;/div&gt;" style="swimlane;fontStyle=1;align=center;verticalAlign=top;childLayout=stackLayout;horizontal=1;startSize=50;horizontalStack=0;resizeParent=1;resizeParentMax=0;resizeLast=0;collapsible=1;marginBottom=0;whiteSpace=wrap;html=1;" parent="1" vertex="1">
          <mxGeometry x="-250" y="106" width="160" height="108" as="geometry" />
        </mxCell>
        <mxCell id="fIdsKdYH5hgE794KYIwS-28" value="NEW" style="text;strokeColor=none;fillColor=none;align=left;verticalAlign=top;spacingLeft=4;spacingRight=4;overflow=hidden;rotatable=0;points=[[0,0.5],[1,0.5]];portConstraint=eastwest;whiteSpace=wrap;html=1;" parent="fIdsKdYH5hgE794KYIwS-27" vertex="1">
          <mxGeometry y="50" width="160" height="24" as="geometry" />
        </mxCell>
        <mxCell id="fIdsKdYH5hgE794KYIwS-29" value="DISPENSED" style="text;strokeColor=none;fillColor=none;align=left;verticalAlign=top;spacingLeft=4;spacingRight=4;overflow=hidden;rotatable=0;points=[[0,0.5],[1,0.5]];portConstraint=eastwest;whiteSpace=wrap;html=1;" parent="fIdsKdYH5hgE794KYIwS-27" vertex="1">
          <mxGeometry y="74" width="160" height="26" as="geometry" />
        </mxCell>
        <mxCell id="fIdsKdYH5hgE794KYIwS-30" value="" style="line;strokeWidth=1;fillColor=none;align=left;verticalAlign=middle;spacingTop=-1;spacingLeft=3;spacingRight=3;rotatable=0;labelPosition=right;points=[];portConstraint=eastwest;strokeColor=inherit;" parent="fIdsKdYH5hgE794KYIwS-27" vertex="1">
          <mxGeometry y="100" width="160" height="8" as="geometry" />
        </mxCell>
        <mxCell id="fIdsKdYH5hgE794KYIwS-36" value="&lt;p style=&quot;margin:0px;margin-top:4px;text-align:center;&quot;&gt;&lt;b&gt;Pharmacists&lt;/b&gt;&lt;/p&gt;&lt;hr size=&quot;1&quot; style=&quot;border-style:solid;&quot;&gt;&lt;p style=&quot;margin:0px;margin-left:4px;&quot;&gt;+ pharmacists: List&amp;lt;Pharmacists&amp;gt;&lt;/p&gt;&lt;hr size=&quot;1&quot; style=&quot;border-style:solid;&quot;&gt;&lt;p style=&quot;margin:0px;margin-left:4px;&quot;&gt;+ findPharmacist(): Type&lt;/p&gt;" style="verticalAlign=top;align=left;overflow=fill;html=1;whiteSpace=wrap;" parent="1" vertex="1">
          <mxGeometry x="740" y="-200" width="190" height="90" as="geometry" />
        </mxCell>
        <mxCell id="fIdsKdYH5hgE794KYIwS-37" value="" style="endArrow=open;html=1;endSize=12;startArrow=diamondThin;startSize=14;startFill=0;edgeStyle=orthogonalEdgeStyle;rounded=0;entryX=0.538;entryY=-0.001;entryDx=0;entryDy=0;entryPerimeter=0;exitX=0.433;exitY=1;exitDx=0;exitDy=0;exitPerimeter=0;" parent="1" target="fIdsKdYH5hgE794KYIwS-1" edge="1" source="6xVW4j3KkFThEF_lXin_-122">
          <mxGeometry relative="1" as="geometry">
            <mxPoint x="400.7199999999998" y="-108.6400000000001" as="sourcePoint" />
            <mxPoint x="510" y="-27" as="targetPoint" />
          </mxGeometry>
        </mxCell>
        <mxCell id="fIdsKdYH5hgE794KYIwS-38" value="1" style="edgeLabel;resizable=0;html=1;align=left;verticalAlign=top;" parent="fIdsKdYH5hgE794KYIwS-37" connectable="0" vertex="1">
          <mxGeometry x="-1" relative="1" as="geometry">
            <mxPoint x="10" as="offset" />
          </mxGeometry>
        </mxCell>
        <mxCell id="fIdsKdYH5hgE794KYIwS-39" value="0...*" style="edgeLabel;resizable=0;html=1;align=right;verticalAlign=top;" parent="fIdsKdYH5hgE794KYIwS-37" connectable="0" vertex="1">
          <mxGeometry x="1" relative="1" as="geometry">
            <mxPoint x="32" y="-22" as="offset" />
          </mxGeometry>
        </mxCell>
        <mxCell id="fIdsKdYH5hgE794KYIwS-40" value="" style="endArrow=open;html=1;endSize=12;startArrow=diamondThin;startSize=14;startFill=0;edgeStyle=orthogonalEdgeStyle;rounded=0;exitX=0.518;exitY=1;exitDx=0;exitDy=0;exitPerimeter=0;entryX=0.5;entryY=0;entryDx=0;entryDy=0;" parent="1" source="fIdsKdYH5hgE794KYIwS-36" target="fIdsKdYH5hgE794KYIwS-6" edge="1">
          <mxGeometry relative="1" as="geometry">
            <mxPoint x="750" y="-70" as="sourcePoint" />
            <mxPoint x="767" y="31" as="targetPoint" />
          </mxGeometry>
        </mxCell>
        <mxCell id="fIdsKdYH5hgE794KYIwS-41" value="1" style="edgeLabel;resizable=0;html=1;align=left;verticalAlign=top;" parent="fIdsKdYH5hgE794KYIwS-40" connectable="0" vertex="1">
          <mxGeometry x="-1" relative="1" as="geometry">
            <mxPoint x="10" as="offset" />
          </mxGeometry>
        </mxCell>
        <mxCell id="fIdsKdYH5hgE794KYIwS-42" value="0...*" style="edgeLabel;resizable=0;html=1;align=right;verticalAlign=top;" parent="fIdsKdYH5hgE794KYIwS-40" connectable="0" vertex="1">
          <mxGeometry x="1" relative="1" as="geometry">
            <mxPoint x="32" y="-22" as="offset" />
          </mxGeometry>
        </mxCell>
        <mxCell id="fIdsKdYH5hgE794KYIwS-43" value="" style="endArrow=open;html=1;endSize=12;startArrow=diamondThin;startSize=14;startFill=0;edgeStyle=orthogonalEdgeStyle;rounded=0;exitX=0;exitY=0.5;exitDx=0;exitDy=0;entryX=1;entryY=0.25;entryDx=0;entryDy=0;" parent="1" source="fIdsKdYH5hgE794KYIwS-24" target="fIdsKdYH5hgE794KYIwS-27" edge="1">
          <mxGeometry relative="1" as="geometry">
            <mxPoint x="364" y="-60" as="sourcePoint" />
            <mxPoint x="381" y="41" as="targetPoint" />
          </mxGeometry>
        </mxCell>
        <mxCell id="fIdsKdYH5hgE794KYIwS-44" value="1" style="edgeLabel;resizable=0;html=1;align=left;verticalAlign=top;" parent="fIdsKdYH5hgE794KYIwS-43" connectable="0" vertex="1">
          <mxGeometry x="-1" relative="1" as="geometry">
            <mxPoint x="-15" y="2" as="offset" />
          </mxGeometry>
        </mxCell>
        <mxCell id="fIdsKdYH5hgE794KYIwS-45" value="1" style="edgeLabel;resizable=0;html=1;align=right;verticalAlign=top;" parent="fIdsKdYH5hgE794KYIwS-43" connectable="0" vertex="1">
          <mxGeometry x="1" relative="1" as="geometry">
            <mxPoint x="22" y="-22" as="offset" />
          </mxGeometry>
        </mxCell>
        <mxCell id="fIdsKdYH5hgE794KYIwS-46" value="&lt;b&gt;Admins&lt;/b&gt;" style="swimlane;fontStyle=0;childLayout=stackLayout;horizontal=1;startSize=26;fillColor=none;horizontalStack=0;resizeParent=1;resizeParentMax=0;resizeLast=0;collapsible=1;marginBottom=0;whiteSpace=wrap;html=1;" parent="1" vertex="1">
          <mxGeometry x="540" y="-200" width="140" height="52" as="geometry" />
        </mxCell>
        <mxCell id="fIdsKdYH5hgE794KYIwS-47" value="+ accessAdmin: void" style="text;strokeColor=none;fillColor=none;align=left;verticalAlign=top;spacingLeft=4;spacingRight=4;overflow=hidden;rotatable=0;points=[[0,0.5],[1,0.5]];portConstraint=eastwest;whiteSpace=wrap;html=1;" parent="fIdsKdYH5hgE794KYIwS-46" vertex="1">
          <mxGeometry y="26" width="140" height="26" as="geometry" />
        </mxCell>
        <mxCell id="fIdsKdYH5hgE794KYIwS-50" value="" style="endArrow=open;html=1;endSize=12;startArrow=diamondThin;startSize=14;startFill=0;edgeStyle=orthogonalEdgeStyle;rounded=0;entryX=0.25;entryY=0;entryDx=0;entryDy=0;exitX=0.502;exitY=1.011;exitDx=0;exitDy=0;exitPerimeter=0;" parent="1" source="fIdsKdYH5hgE794KYIwS-47" edge="1" target="XrcHUc9gPPaBWGD-bMCw-1">
          <mxGeometry relative="1" as="geometry">
            <mxPoint x="610" y="-140" as="sourcePoint" />
            <mxPoint x="631.71" y="24.889999999999873" as="targetPoint" />
            <Array as="points">
              <mxPoint x="610" y="-130" />
              <mxPoint x="588" y="-130" />
              <mxPoint x="588" y="-54" />
              <mxPoint x="600" y="-54" />
            </Array>
          </mxGeometry>
        </mxCell>
        <mxCell id="fIdsKdYH5hgE794KYIwS-51" value="1" style="edgeLabel;resizable=0;html=1;align=left;verticalAlign=top;" parent="fIdsKdYH5hgE794KYIwS-50" connectable="0" vertex="1">
          <mxGeometry x="-1" relative="1" as="geometry">
            <mxPoint x="10" as="offset" />
          </mxGeometry>
        </mxCell>
        <mxCell id="fIdsKdYH5hgE794KYIwS-52" value="1" style="edgeLabel;resizable=0;html=1;align=right;verticalAlign=top;" parent="fIdsKdYH5hgE794KYIwS-50" connectable="0" vertex="1">
          <mxGeometry x="1" relative="1" as="geometry">
            <mxPoint x="32" y="-22" as="offset" />
          </mxGeometry>
        </mxCell>
        <mxCell id="fIdsKdYH5hgE794KYIwS-53" value="&lt;b&gt;Prescriptions&lt;/b&gt;" style="swimlane;fontStyle=0;childLayout=stackLayout;horizontal=1;startSize=26;fillColor=none;horizontalStack=0;resizeParent=1;resizeParentMax=0;resizeLast=0;collapsible=1;marginBottom=0;whiteSpace=wrap;html=1;" parent="1" vertex="1">
          <mxGeometry x="90" y="-150" width="140" height="104" as="geometry" />
        </mxCell>
        <mxCell id="fIdsKdYH5hgE794KYIwS-54" value="+ field: type" style="text;strokeColor=none;fillColor=none;align=left;verticalAlign=top;spacingLeft=4;spacingRight=4;overflow=hidden;rotatable=0;points=[[0,0.5],[1,0.5]];portConstraint=eastwest;whiteSpace=wrap;html=1;" parent="fIdsKdYH5hgE794KYIwS-53" vertex="1">
          <mxGeometry y="26" width="140" height="26" as="geometry" />
        </mxCell>
        <mxCell id="fIdsKdYH5hgE794KYIwS-55" value="+ field: type" style="text;strokeColor=none;fillColor=none;align=left;verticalAlign=top;spacingLeft=4;spacingRight=4;overflow=hidden;rotatable=0;points=[[0,0.5],[1,0.5]];portConstraint=eastwest;whiteSpace=wrap;html=1;" parent="fIdsKdYH5hgE794KYIwS-53" vertex="1">
          <mxGeometry y="52" width="140" height="26" as="geometry" />
        </mxCell>
        <mxCell id="fIdsKdYH5hgE794KYIwS-56" value="+ field: type" style="text;strokeColor=none;fillColor=none;align=left;verticalAlign=top;spacingLeft=4;spacingRight=4;overflow=hidden;rotatable=0;points=[[0,0.5],[1,0.5]];portConstraint=eastwest;whiteSpace=wrap;html=1;" parent="fIdsKdYH5hgE794KYIwS-53" vertex="1">
          <mxGeometry y="78" width="140" height="26" as="geometry" />
        </mxCell>
        <mxCell id="fIdsKdYH5hgE794KYIwS-57" value="" style="endArrow=open;html=1;endSize=12;startArrow=diamondThin;startSize=14;startFill=0;edgeStyle=orthogonalEdgeStyle;rounded=0;exitX=0.532;exitY=1;exitDx=0;exitDy=0;exitPerimeter=0;entryX=0.5;entryY=0;entryDx=0;entryDy=0;" parent="1" source="fIdsKdYH5hgE794KYIwS-56" target="fIdsKdYH5hgE794KYIwS-11" edge="1">
          <mxGeometry relative="1" as="geometry">
            <mxPoint x="329" y="-70" as="sourcePoint" />
            <mxPoint x="346" y="31" as="targetPoint" />
          </mxGeometry>
        </mxCell>
        <mxCell id="fIdsKdYH5hgE794KYIwS-58" value="1" style="edgeLabel;resizable=0;html=1;align=left;verticalAlign=top;" parent="fIdsKdYH5hgE794KYIwS-57" connectable="0" vertex="1">
          <mxGeometry x="-1" relative="1" as="geometry">
            <mxPoint x="10" as="offset" />
          </mxGeometry>
        </mxCell>
        <mxCell id="fIdsKdYH5hgE794KYIwS-59" value="0...*" style="edgeLabel;resizable=0;html=1;align=right;verticalAlign=top;" parent="fIdsKdYH5hgE794KYIwS-57" connectable="0" vertex="1">
          <mxGeometry x="1" relative="1" as="geometry">
            <mxPoint x="32" y="-22" as="offset" />
          </mxGeometry>
        </mxCell>
        <mxCell id="fIdsKdYH5hgE794KYIwS-60" value="&lt;div&gt;&lt;span style=&quot;background-color: transparent; color: light-dark(rgb(0, 0, 0), rgb(255, 255, 255));&quot;&gt;&lt;b&gt;&amp;lt;&amp;lt;enumerations&amp;gt;&amp;gt;&lt;/b&gt;&lt;/span&gt;&lt;/div&gt;&lt;div&gt;&lt;span style=&quot;background-color: transparent; color: light-dark(rgb(0, 0, 0), rgb(255, 255, 255));&quot;&gt;&lt;b&gt;Specialization&lt;/b&gt;&lt;/span&gt;&lt;/div&gt;" style="swimlane;fontStyle=0;childLayout=stackLayout;horizontal=1;startSize=40;fillColor=none;horizontalStack=0;resizeParent=1;resizeParentMax=0;resizeLast=0;collapsible=1;marginBottom=0;whiteSpace=wrap;html=1;" parent="1" vertex="1">
          <mxGeometry x="510" y="290" width="280" height="320" as="geometry" />
        </mxCell>
        <mxCell id="fIdsKdYH5hgE794KYIwS-61" value="&lt;div&gt;GENERAL PRACTITIONER&lt;/div&gt;&lt;div&gt;MEDICAL OFFICER&lt;/div&gt;&lt;div&gt;FAMILY PHYSICIAN&lt;/div&gt;&lt;div&gt;INTERNAL MEDICINE PHYSICIAN&lt;/div&gt;&lt;div&gt;PEDIATRICIAN&lt;/div&gt;&lt;div&gt;OBSTETRICIAN&lt;/div&gt;&lt;div&gt;GYNECOLOGIST&lt;/div&gt;&lt;div&gt;GENERAL SURGEON&lt;/div&gt;&lt;div&gt;ORTHOPEDIC SURGEON&lt;/div&gt;&lt;div&gt;ANESTHETIST ANESTHESIOLOGIST&lt;/div&gt;&lt;div&gt;PSYCHIATRIST&lt;/div&gt;&lt;div&gt;RADIOLOGIST&lt;/div&gt;&lt;div&gt;PATHOLOGIST&lt;/div&gt;&lt;div&gt;ENT SPECIALIST&lt;/div&gt;&lt;div&gt;OPHTHALMOLOGIST&lt;/div&gt;&lt;div&gt;DERMATOLOGIST&lt;/div&gt;&lt;div&gt;UROLOGIST&lt;/div&gt;&lt;div&gt;EMERGENCY MEDICINE DOCTOR&lt;/div&gt;&lt;div&gt;PUBLIC HEALTH PHYSICIAN&lt;/div&gt;" style="text;strokeColor=none;fillColor=none;align=left;verticalAlign=top;spacingLeft=4;spacingRight=4;overflow=hidden;rotatable=0;points=[[0,0.5],[1,0.5]];portConstraint=eastwest;whiteSpace=wrap;html=1;" parent="fIdsKdYH5hgE794KYIwS-60" vertex="1">
          <mxGeometry y="40" width="280" height="280" as="geometry" />
        </mxCell>
        <mxCell id="fIdsKdYH5hgE794KYIwS-64" value="" style="endArrow=open;html=1;endSize=12;startArrow=diamondThin;startSize=14;startFill=0;edgeStyle=orthogonalEdgeStyle;rounded=0;exitX=1;exitY=0.5;exitDx=0;exitDy=0;entryX=0.614;entryY=0;entryDx=0;entryDy=0;entryPerimeter=0;" parent="1" source="fIdsKdYH5hgE794KYIwS-18" target="fIdsKdYH5hgE794KYIwS-60" edge="1">
          <mxGeometry relative="1" as="geometry">
            <mxPoint x="170" y="293" as="sourcePoint" />
            <mxPoint x="20" y="259" as="targetPoint" />
          </mxGeometry>
        </mxCell>
        <mxCell id="fIdsKdYH5hgE794KYIwS-65" value="1" style="edgeLabel;resizable=0;html=1;align=left;verticalAlign=top;" parent="fIdsKdYH5hgE794KYIwS-64" connectable="0" vertex="1">
          <mxGeometry x="-1" relative="1" as="geometry">
            <mxPoint x="3" y="2" as="offset" />
          </mxGeometry>
        </mxCell>
        <mxCell id="fIdsKdYH5hgE794KYIwS-66" value="1" style="edgeLabel;resizable=0;html=1;align=right;verticalAlign=top;" parent="fIdsKdYH5hgE794KYIwS-64" connectable="0" vertex="1">
          <mxGeometry x="1" relative="1" as="geometry">
            <mxPoint x="21" y="-32" as="offset" />
          </mxGeometry>
        </mxCell>
        <mxCell id="6xVW4j3KkFThEF_lXin_-17" value="PrescriptionsTest" style="swimlane;fontStyle=1;align=center;verticalAlign=top;childLayout=stackLayout;horizontal=1;startSize=26;horizontalStack=0;resizeParent=1;resizeParentMax=0;resizeLast=0;collapsible=1;marginBottom=0;whiteSpace=wrap;html=1;" vertex="1" parent="1">
          <mxGeometry x="-260" y="-109" width="200" height="86" as="geometry" />
        </mxCell>
        <mxCell id="6xVW4j3KkFThEF_lXin_-18" value="- prescriptions: Prescriptions" style="text;strokeColor=none;fillColor=none;align=left;verticalAlign=top;spacingLeft=4;spacingRight=4;overflow=hidden;rotatable=0;points=[[0,0.5],[1,0.5]];portConstraint=eastwest;whiteSpace=wrap;html=1;" vertex="1" parent="6xVW4j3KkFThEF_lXin_-17">
          <mxGeometry y="26" width="200" height="26" as="geometry" />
        </mxCell>
        <mxCell id="6xVW4j3KkFThEF_lXin_-19" value="" style="line;strokeWidth=1;fillColor=none;align=left;verticalAlign=middle;spacingTop=-1;spacingLeft=3;spacingRight=3;rotatable=0;labelPosition=right;points=[];portConstraint=eastwest;strokeColor=inherit;" vertex="1" parent="6xVW4j3KkFThEF_lXin_-17">
          <mxGeometry y="52" width="200" height="8" as="geometry" />
        </mxCell>
        <mxCell id="6xVW4j3KkFThEF_lXin_-20" value="+ allTestCases(): void" style="text;strokeColor=none;fillColor=none;align=left;verticalAlign=top;spacingLeft=4;spacingRight=4;overflow=hidden;rotatable=0;points=[[0,0.5],[1,0.5]];portConstraint=eastwest;whiteSpace=wrap;html=1;" vertex="1" parent="6xVW4j3KkFThEF_lXin_-17">
          <mxGeometry y="60" width="200" height="26" as="geometry" />
        </mxCell>
        <mxCell id="6xVW4j3KkFThEF_lXin_-25" value="DoctorsTest" style="swimlane;fontStyle=1;align=center;verticalAlign=top;childLayout=stackLayout;horizontal=1;startSize=26;horizontalStack=0;resizeParent=1;resizeParentMax=0;resizeLast=0;collapsible=1;marginBottom=0;whiteSpace=wrap;html=1;" vertex="1" parent="1">
          <mxGeometry x="-210" y="-285" width="160" height="86" as="geometry" />
        </mxCell>
        <mxCell id="6xVW4j3KkFThEF_lXin_-26" value="- doctors: Doctors" style="text;strokeColor=none;fillColor=none;align=left;verticalAlign=top;spacingLeft=4;spacingRight=4;overflow=hidden;rotatable=0;points=[[0,0.5],[1,0.5]];portConstraint=eastwest;whiteSpace=wrap;html=1;" vertex="1" parent="6xVW4j3KkFThEF_lXin_-25">
          <mxGeometry y="26" width="160" height="26" as="geometry" />
        </mxCell>
        <mxCell id="6xVW4j3KkFThEF_lXin_-27" value="" style="line;strokeWidth=1;fillColor=none;align=left;verticalAlign=middle;spacingTop=-1;spacingLeft=3;spacingRight=3;rotatable=0;labelPosition=right;points=[];portConstraint=eastwest;strokeColor=inherit;" vertex="1" parent="6xVW4j3KkFThEF_lXin_-25">
          <mxGeometry y="52" width="160" height="8" as="geometry" />
        </mxCell>
        <mxCell id="6xVW4j3KkFThEF_lXin_-28" value="+ allTestCases(): void" style="text;strokeColor=none;fillColor=none;align=left;verticalAlign=top;spacingLeft=4;spacingRight=4;overflow=hidden;rotatable=0;points=[[0,0.5],[1,0.5]];portConstraint=eastwest;whiteSpace=wrap;html=1;" vertex="1" parent="6xVW4j3KkFThEF_lXin_-25">
          <mxGeometry y="60" width="160" height="26" as="geometry" />
        </mxCell>
        <mxCell id="6xVW4j3KkFThEF_lXin_-29" value="AdminsTest" style="swimlane;fontStyle=1;align=center;verticalAlign=top;childLayout=stackLayout;horizontal=1;startSize=26;horizontalStack=0;resizeParent=1;resizeParentMax=0;resizeLast=0;collapsible=1;marginBottom=0;whiteSpace=wrap;html=1;" vertex="1" parent="1">
          <mxGeometry x="1050" y="-285" width="160" height="86" as="geometry" />
        </mxCell>
        <mxCell id="6xVW4j3KkFThEF_lXin_-30" value="- admins: Admin" style="text;strokeColor=none;fillColor=none;align=left;verticalAlign=top;spacingLeft=4;spacingRight=4;overflow=hidden;rotatable=0;points=[[0,0.5],[1,0.5]];portConstraint=eastwest;whiteSpace=wrap;html=1;" vertex="1" parent="6xVW4j3KkFThEF_lXin_-29">
          <mxGeometry y="26" width="160" height="26" as="geometry" />
        </mxCell>
        <mxCell id="6xVW4j3KkFThEF_lXin_-31" value="" style="line;strokeWidth=1;fillColor=none;align=left;verticalAlign=middle;spacingTop=-1;spacingLeft=3;spacingRight=3;rotatable=0;labelPosition=right;points=[];portConstraint=eastwest;strokeColor=inherit;" vertex="1" parent="6xVW4j3KkFThEF_lXin_-29">
          <mxGeometry y="52" width="160" height="8" as="geometry" />
        </mxCell>
        <mxCell id="6xVW4j3KkFThEF_lXin_-32" value="+ allTestCases(): void" style="text;strokeColor=none;fillColor=none;align=left;verticalAlign=top;spacingLeft=4;spacingRight=4;overflow=hidden;rotatable=0;points=[[0,0.5],[1,0.5]];portConstraint=eastwest;whiteSpace=wrap;html=1;" vertex="1" parent="6xVW4j3KkFThEF_lXin_-29">
          <mxGeometry y="60" width="160" height="26" as="geometry" />
        </mxCell>
        <mxCell id="6xVW4j3KkFThEF_lXin_-41" value="PharmacistsTest" style="swimlane;fontStyle=1;align=center;verticalAlign=top;childLayout=stackLayout;horizontal=1;startSize=26;horizontalStack=0;resizeParent=1;resizeParentMax=0;resizeLast=0;collapsible=1;marginBottom=0;whiteSpace=wrap;html=1;" vertex="1" parent="1">
          <mxGeometry x="1040" y="-170" width="160" height="86" as="geometry" />
        </mxCell>
        <mxCell id="6xVW4j3KkFThEF_lXin_-42" value="- pharmacists: Pharmacists" style="text;strokeColor=none;fillColor=none;align=left;verticalAlign=top;spacingLeft=4;spacingRight=4;overflow=hidden;rotatable=0;points=[[0,0.5],[1,0.5]];portConstraint=eastwest;whiteSpace=wrap;html=1;" vertex="1" parent="6xVW4j3KkFThEF_lXin_-41">
          <mxGeometry y="26" width="160" height="26" as="geometry" />
        </mxCell>
        <mxCell id="6xVW4j3KkFThEF_lXin_-43" value="" style="line;strokeWidth=1;fillColor=none;align=left;verticalAlign=middle;spacingTop=-1;spacingLeft=3;spacingRight=3;rotatable=0;labelPosition=right;points=[];portConstraint=eastwest;strokeColor=inherit;" vertex="1" parent="6xVW4j3KkFThEF_lXin_-41">
          <mxGeometry y="52" width="160" height="8" as="geometry" />
        </mxCell>
        <mxCell id="6xVW4j3KkFThEF_lXin_-44" value="+ allTestCases(): void" style="text;strokeColor=none;fillColor=none;align=left;verticalAlign=top;spacingLeft=4;spacingRight=4;overflow=hidden;rotatable=0;points=[[0,0.5],[1,0.5]];portConstraint=eastwest;whiteSpace=wrap;html=1;" vertex="1" parent="6xVW4j3KkFThEF_lXin_-41">
          <mxGeometry y="60" width="160" height="26" as="geometry" />
        </mxCell>
        <mxCell id="6xVW4j3KkFThEF_lXin_-45" value="DoctorsServices" style="swimlane;fontStyle=1;align=center;verticalAlign=top;childLayout=stackLayout;horizontal=1;startSize=26;horizontalStack=0;resizeParent=1;resizeParentMax=0;resizeLast=0;collapsible=1;marginBottom=0;whiteSpace=wrap;html=1;" vertex="1" parent="1">
          <mxGeometry x="180" y="-530" width="200" height="86" as="geometry" />
        </mxCell>
        <mxCell id="6xVW4j3KkFThEF_lXin_-46" value="+ field: type" style="text;strokeColor=none;fillColor=none;align=left;verticalAlign=top;spacingLeft=4;spacingRight=4;overflow=hidden;rotatable=0;points=[[0,0.5],[1,0.5]];portConstraint=eastwest;whiteSpace=wrap;html=1;" vertex="1" parent="6xVW4j3KkFThEF_lXin_-45">
          <mxGeometry y="26" width="200" height="26" as="geometry" />
        </mxCell>
        <mxCell id="6xVW4j3KkFThEF_lXin_-47" value="" style="line;strokeWidth=1;fillColor=none;align=left;verticalAlign=middle;spacingTop=-1;spacingLeft=3;spacingRight=3;rotatable=0;labelPosition=right;points=[];portConstraint=eastwest;strokeColor=inherit;" vertex="1" parent="6xVW4j3KkFThEF_lXin_-45">
          <mxGeometry y="52" width="200" height="8" as="geometry" />
        </mxCell>
        <mxCell id="6xVW4j3KkFThEF_lXin_-48" value="+ createPrescription(type): type" style="text;strokeColor=none;fillColor=none;align=left;verticalAlign=top;spacingLeft=4;spacingRight=4;overflow=hidden;rotatable=0;points=[[0,0.5],[1,0.5]];portConstraint=eastwest;whiteSpace=wrap;html=1;" vertex="1" parent="6xVW4j3KkFThEF_lXin_-45">
          <mxGeometry y="60" width="200" height="26" as="geometry" />
        </mxCell>
        <mxCell id="6xVW4j3KkFThEF_lXin_-49" value="AdminsServices" style="swimlane;fontStyle=1;align=center;verticalAlign=top;childLayout=stackLayout;horizontal=1;startSize=26;horizontalStack=0;resizeParent=1;resizeParentMax=0;resizeLast=0;collapsible=1;marginBottom=0;whiteSpace=wrap;html=1;" vertex="1" parent="1">
          <mxGeometry x="430" y="-530" width="200" height="166" as="geometry" />
        </mxCell>
        <mxCell id="6xVW4j3KkFThEF_lXin_-50" value="+ field: type" style="text;strokeColor=none;fillColor=none;align=left;verticalAlign=top;spacingLeft=4;spacingRight=4;overflow=hidden;rotatable=0;points=[[0,0.5],[1,0.5]];portConstraint=eastwest;whiteSpace=wrap;html=1;" vertex="1" parent="6xVW4j3KkFThEF_lXin_-49">
          <mxGeometry y="26" width="200" height="26" as="geometry" />
        </mxCell>
        <mxCell id="6xVW4j3KkFThEF_lXin_-51" value="" style="line;strokeWidth=1;fillColor=none;align=left;verticalAlign=middle;spacingTop=-1;spacingLeft=3;spacingRight=3;rotatable=0;labelPosition=right;points=[];portConstraint=eastwest;strokeColor=inherit;" vertex="1" parent="6xVW4j3KkFThEF_lXin_-49">
          <mxGeometry y="52" width="200" height="8" as="geometry" />
        </mxCell>
        <mxCell id="6xVW4j3KkFThEF_lXin_-52" value="+ addDoctor(type): type" style="text;strokeColor=none;fillColor=none;align=left;verticalAlign=top;spacingLeft=4;spacingRight=4;overflow=hidden;rotatable=0;points=[[0,0.5],[1,0.5]];portConstraint=eastwest;whiteSpace=wrap;html=1;" vertex="1" parent="6xVW4j3KkFThEF_lXin_-49">
          <mxGeometry y="60" width="200" height="26" as="geometry" />
        </mxCell>
        <mxCell id="6xVW4j3KkFThEF_lXin_-106" value="+ addPharmacist(type): type" style="text;strokeColor=none;fillColor=none;align=left;verticalAlign=top;spacingLeft=4;spacingRight=4;overflow=hidden;rotatable=0;points=[[0,0.5],[1,0.5]];portConstraint=eastwest;whiteSpace=wrap;html=1;" vertex="1" parent="6xVW4j3KkFThEF_lXin_-49">
          <mxGeometry y="86" width="200" height="26" as="geometry" />
        </mxCell>
        <mxCell id="6xVW4j3KkFThEF_lXin_-107" value="+ removePharmacist(type): type" style="text;strokeColor=none;fillColor=none;align=left;verticalAlign=top;spacingLeft=4;spacingRight=4;overflow=hidden;rotatable=0;points=[[0,0.5],[1,0.5]];portConstraint=eastwest;whiteSpace=wrap;html=1;" vertex="1" parent="6xVW4j3KkFThEF_lXin_-49">
          <mxGeometry y="112" width="200" height="28" as="geometry" />
        </mxCell>
        <mxCell id="6xVW4j3KkFThEF_lXin_-114" value="+ removeDoctor(type): type" style="text;strokeColor=none;fillColor=none;align=left;verticalAlign=top;spacingLeft=4;spacingRight=4;overflow=hidden;rotatable=0;points=[[0,0.5],[1,0.5]];portConstraint=eastwest;whiteSpace=wrap;html=1;" vertex="1" parent="6xVW4j3KkFThEF_lXin_-49">
          <mxGeometry y="140" width="200" height="26" as="geometry" />
        </mxCell>
        <mxCell id="6xVW4j3KkFThEF_lXin_-53" value="PharmacistsServices" style="swimlane;fontStyle=1;align=center;verticalAlign=top;childLayout=stackLayout;horizontal=1;startSize=26;horizontalStack=0;resizeParent=1;resizeParentMax=0;resizeLast=0;collapsible=1;marginBottom=0;whiteSpace=wrap;html=1;" vertex="1" parent="1">
          <mxGeometry x="667" y="-530" width="230" height="112" as="geometry" />
        </mxCell>
        <mxCell id="6xVW4j3KkFThEF_lXin_-54" value="+ field: type" style="text;strokeColor=none;fillColor=none;align=left;verticalAlign=top;spacingLeft=4;spacingRight=4;overflow=hidden;rotatable=0;points=[[0,0.5],[1,0.5]];portConstraint=eastwest;whiteSpace=wrap;html=1;" vertex="1" parent="6xVW4j3KkFThEF_lXin_-53">
          <mxGeometry y="26" width="230" height="26" as="geometry" />
        </mxCell>
        <mxCell id="6xVW4j3KkFThEF_lXin_-55" value="" style="line;strokeWidth=1;fillColor=none;align=left;verticalAlign=middle;spacingTop=-1;spacingLeft=3;spacingRight=3;rotatable=0;labelPosition=right;points=[];portConstraint=eastwest;strokeColor=inherit;" vertex="1" parent="6xVW4j3KkFThEF_lXin_-53">
          <mxGeometry y="52" width="230" height="8" as="geometry" />
        </mxCell>
        <mxCell id="6xVW4j3KkFThEF_lXin_-56" value="+ checkPrescription(type): type" style="text;strokeColor=none;fillColor=none;align=left;verticalAlign=top;spacingLeft=4;spacingRight=4;overflow=hidden;rotatable=0;points=[[0,0.5],[1,0.5]];portConstraint=eastwest;whiteSpace=wrap;html=1;" vertex="1" parent="6xVW4j3KkFThEF_lXin_-53">
          <mxGeometry y="60" width="230" height="26" as="geometry" />
        </mxCell>
        <mxCell id="6xVW4j3KkFThEF_lXin_-115" value="+ markPrescriptionAsDone(type): type" style="text;strokeColor=none;fillColor=none;align=left;verticalAlign=top;spacingLeft=4;spacingRight=4;overflow=hidden;rotatable=0;points=[[0,0.5],[1,0.5]];portConstraint=eastwest;whiteSpace=wrap;html=1;" vertex="1" parent="6xVW4j3KkFThEF_lXin_-53">
          <mxGeometry y="86" width="230" height="26" as="geometry" />
        </mxCell>
        <mxCell id="6xVW4j3KkFThEF_lXin_-60" value="" style="endArrow=open;html=1;endSize=12;startArrow=diamondThin;startSize=14;startFill=0;edgeStyle=orthogonalEdgeStyle;align=left;verticalAlign=bottom;rounded=0;exitX=1;exitY=0.25;exitDx=0;exitDy=0;entryX=-0.01;entryY=0.186;entryDx=0;entryDy=0;entryPerimeter=0;" edge="1" parent="1" source="6xVW4j3KkFThEF_lXin_-17" target="fIdsKdYH5hgE794KYIwS-53">
          <mxGeometry x="-1" y="3" relative="1" as="geometry">
            <mxPoint x="-2" y="-270" as="sourcePoint" />
            <mxPoint x="158" y="-270" as="targetPoint" />
          </mxGeometry>
        </mxCell>
        <mxCell id="6xVW4j3KkFThEF_lXin_-61" value="" style="endArrow=open;html=1;endSize=12;startArrow=diamondThin;startSize=14;startFill=0;edgeStyle=orthogonalEdgeStyle;align=left;verticalAlign=bottom;rounded=0;exitX=1;exitY=0.25;exitDx=0;exitDy=0;entryX=0.25;entryY=0;entryDx=0;entryDy=0;" edge="1" parent="1" source="6xVW4j3KkFThEF_lXin_-25" target="6xVW4j3KkFThEF_lXin_-119">
          <mxGeometry x="-1" y="3" relative="1" as="geometry">
            <mxPoint x="-10" y="-83" as="sourcePoint" />
            <mxPoint x="320.0799999999999" y="-199.99" as="targetPoint" />
          </mxGeometry>
        </mxCell>
        <mxCell id="6xVW4j3KkFThEF_lXin_-137" value="creates" style="edgeLabel;html=1;align=center;verticalAlign=middle;resizable=0;points=[];" vertex="1" connectable="0" parent="6xVW4j3KkFThEF_lXin_-61">
          <mxGeometry x="-0.098" y="2" relative="1" as="geometry">
            <mxPoint as="offset" />
          </mxGeometry>
        </mxCell>
        <mxCell id="6xVW4j3KkFThEF_lXin_-66" value="" style="endArrow=open;html=1;endSize=12;startArrow=diamondThin;startSize=14;startFill=0;edgeStyle=orthogonalEdgeStyle;align=left;verticalAlign=bottom;rounded=0;entryX=1.005;entryY=0.181;entryDx=0;entryDy=0;entryPerimeter=0;exitX=-0.01;exitY=0.182;exitDx=0;exitDy=0;exitPerimeter=0;" edge="1" parent="1" source="6xVW4j3KkFThEF_lXin_-41" target="fIdsKdYH5hgE794KYIwS-36">
          <mxGeometry x="-1" y="3" relative="1" as="geometry">
            <mxPoint x="1113" y="-170" as="sourcePoint" />
            <mxPoint x="953" y="-170" as="targetPoint" />
          </mxGeometry>
        </mxCell>
        <mxCell id="6xVW4j3KkFThEF_lXin_-71" value="" style="endArrow=open;html=1;endSize=12;startArrow=diamondThin;startSize=14;startFill=0;edgeStyle=orthogonalEdgeStyle;align=left;verticalAlign=bottom;rounded=0;entryX=0.75;entryY=0;entryDx=0;entryDy=0;exitX=0.008;exitY=0.17;exitDx=0;exitDy=0;exitPerimeter=0;" edge="1" parent="1" source="6xVW4j3KkFThEF_lXin_-29" target="fIdsKdYH5hgE794KYIwS-46">
          <mxGeometry x="-1" y="3" relative="1" as="geometry">
            <mxPoint x="1027" y="-290" as="sourcePoint" />
            <mxPoint x="920" y="-320" as="targetPoint" />
            <mxPoint as="offset" />
          </mxGeometry>
        </mxCell>
        <mxCell id="6xVW4j3KkFThEF_lXin_-72" value="DoctorsController" style="swimlane;fontStyle=1;align=center;verticalAlign=top;childLayout=stackLayout;horizontal=1;startSize=26;horizontalStack=0;resizeParent=1;resizeParentMax=0;resizeLast=0;collapsible=1;marginBottom=0;whiteSpace=wrap;html=1;" vertex="1" parent="1">
          <mxGeometry x="190" y="-701" width="160" height="86" as="geometry" />
        </mxCell>
        <mxCell id="6xVW4j3KkFThEF_lXin_-73" value="+ field: type" style="text;strokeColor=none;fillColor=none;align=left;verticalAlign=top;spacingLeft=4;spacingRight=4;overflow=hidden;rotatable=0;points=[[0,0.5],[1,0.5]];portConstraint=eastwest;whiteSpace=wrap;html=1;" vertex="1" parent="6xVW4j3KkFThEF_lXin_-72">
          <mxGeometry y="26" width="160" height="26" as="geometry" />
        </mxCell>
        <mxCell id="6xVW4j3KkFThEF_lXin_-74" value="" style="line;strokeWidth=1;fillColor=none;align=left;verticalAlign=middle;spacingTop=-1;spacingLeft=3;spacingRight=3;rotatable=0;labelPosition=right;points=[];portConstraint=eastwest;strokeColor=inherit;" vertex="1" parent="6xVW4j3KkFThEF_lXin_-72">
          <mxGeometry y="52" width="160" height="8" as="geometry" />
        </mxCell>
        <mxCell id="6xVW4j3KkFThEF_lXin_-75" value="+ method(type): type" style="text;strokeColor=none;fillColor=none;align=left;verticalAlign=top;spacingLeft=4;spacingRight=4;overflow=hidden;rotatable=0;points=[[0,0.5],[1,0.5]];portConstraint=eastwest;whiteSpace=wrap;html=1;" vertex="1" parent="6xVW4j3KkFThEF_lXin_-72">
          <mxGeometry y="60" width="160" height="26" as="geometry" />
        </mxCell>
        <mxCell id="6xVW4j3KkFThEF_lXin_-76" value="AdminController" style="swimlane;fontStyle=1;align=center;verticalAlign=top;childLayout=stackLayout;horizontal=1;startSize=26;horizontalStack=0;resizeParent=1;resizeParentMax=0;resizeLast=0;collapsible=1;marginBottom=0;whiteSpace=wrap;html=1;" vertex="1" parent="1">
          <mxGeometry x="420" y="-709" width="160" height="86" as="geometry" />
        </mxCell>
        <mxCell id="6xVW4j3KkFThEF_lXin_-77" value="+ field: type" style="text;strokeColor=none;fillColor=none;align=left;verticalAlign=top;spacingLeft=4;spacingRight=4;overflow=hidden;rotatable=0;points=[[0,0.5],[1,0.5]];portConstraint=eastwest;whiteSpace=wrap;html=1;" vertex="1" parent="6xVW4j3KkFThEF_lXin_-76">
          <mxGeometry y="26" width="160" height="26" as="geometry" />
        </mxCell>
        <mxCell id="6xVW4j3KkFThEF_lXin_-78" value="" style="line;strokeWidth=1;fillColor=none;align=left;verticalAlign=middle;spacingTop=-1;spacingLeft=3;spacingRight=3;rotatable=0;labelPosition=right;points=[];portConstraint=eastwest;strokeColor=inherit;" vertex="1" parent="6xVW4j3KkFThEF_lXin_-76">
          <mxGeometry y="52" width="160" height="8" as="geometry" />
        </mxCell>
        <mxCell id="6xVW4j3KkFThEF_lXin_-79" value="+ method(type): type" style="text;strokeColor=none;fillColor=none;align=left;verticalAlign=top;spacingLeft=4;spacingRight=4;overflow=hidden;rotatable=0;points=[[0,0.5],[1,0.5]];portConstraint=eastwest;whiteSpace=wrap;html=1;" vertex="1" parent="6xVW4j3KkFThEF_lXin_-76">
          <mxGeometry y="60" width="160" height="26" as="geometry" />
        </mxCell>
        <mxCell id="6xVW4j3KkFThEF_lXin_-80" value="PharmacistController" style="swimlane;fontStyle=1;align=center;verticalAlign=top;childLayout=stackLayout;horizontal=1;startSize=26;horizontalStack=0;resizeParent=1;resizeParentMax=0;resizeLast=0;collapsible=1;marginBottom=0;whiteSpace=wrap;html=1;" vertex="1" parent="1">
          <mxGeometry x="659" y="-710" width="160" height="86" as="geometry" />
        </mxCell>
        <mxCell id="6xVW4j3KkFThEF_lXin_-81" value="+ field: type" style="text;strokeColor=none;fillColor=none;align=left;verticalAlign=top;spacingLeft=4;spacingRight=4;overflow=hidden;rotatable=0;points=[[0,0.5],[1,0.5]];portConstraint=eastwest;whiteSpace=wrap;html=1;" vertex="1" parent="6xVW4j3KkFThEF_lXin_-80">
          <mxGeometry y="26" width="160" height="26" as="geometry" />
        </mxCell>
        <mxCell id="6xVW4j3KkFThEF_lXin_-82" value="" style="line;strokeWidth=1;fillColor=none;align=left;verticalAlign=middle;spacingTop=-1;spacingLeft=3;spacingRight=3;rotatable=0;labelPosition=right;points=[];portConstraint=eastwest;strokeColor=inherit;" vertex="1" parent="6xVW4j3KkFThEF_lXin_-80">
          <mxGeometry y="52" width="160" height="8" as="geometry" />
        </mxCell>
        <mxCell id="6xVW4j3KkFThEF_lXin_-83" value="+ method(type): type" style="text;strokeColor=none;fillColor=none;align=left;verticalAlign=top;spacingLeft=4;spacingRight=4;overflow=hidden;rotatable=0;points=[[0,0.5],[1,0.5]];portConstraint=eastwest;whiteSpace=wrap;html=1;" vertex="1" parent="6xVW4j3KkFThEF_lXin_-80">
          <mxGeometry y="60" width="160" height="26" as="geometry" />
        </mxCell>
        <mxCell id="6xVW4j3KkFThEF_lXin_-84" value="MainApplication" style="swimlane;fontStyle=1;align=center;verticalAlign=top;childLayout=stackLayout;horizontal=1;startSize=26;horizontalStack=0;resizeParent=1;resizeParentMax=0;resizeLast=0;collapsible=1;marginBottom=0;whiteSpace=wrap;html=1;" vertex="1" parent="1">
          <mxGeometry x="430" y="-941" width="160" height="86" as="geometry" />
        </mxCell>
        <mxCell id="6xVW4j3KkFThEF_lXin_-85" value="+ field: type" style="text;strokeColor=none;fillColor=none;align=left;verticalAlign=top;spacingLeft=4;spacingRight=4;overflow=hidden;rotatable=0;points=[[0,0.5],[1,0.5]];portConstraint=eastwest;whiteSpace=wrap;html=1;" vertex="1" parent="6xVW4j3KkFThEF_lXin_-84">
          <mxGeometry y="26" width="160" height="26" as="geometry" />
        </mxCell>
        <mxCell id="6xVW4j3KkFThEF_lXin_-86" value="" style="line;strokeWidth=1;fillColor=none;align=left;verticalAlign=middle;spacingTop=-1;spacingLeft=3;spacingRight=3;rotatable=0;labelPosition=right;points=[];portConstraint=eastwest;strokeColor=inherit;" vertex="1" parent="6xVW4j3KkFThEF_lXin_-84">
          <mxGeometry y="52" width="160" height="8" as="geometry" />
        </mxCell>
        <mxCell id="6xVW4j3KkFThEF_lXin_-87" value="+ method(type): type" style="text;strokeColor=none;fillColor=none;align=left;verticalAlign=top;spacingLeft=4;spacingRight=4;overflow=hidden;rotatable=0;points=[[0,0.5],[1,0.5]];portConstraint=eastwest;whiteSpace=wrap;html=1;" vertex="1" parent="6xVW4j3KkFThEF_lXin_-84">
          <mxGeometry y="60" width="160" height="26" as="geometry" />
        </mxCell>
        <mxCell id="6xVW4j3KkFThEF_lXin_-88" value="Drives" style="endArrow=open;html=1;endSize=12;startArrow=diamondThin;startSize=14;startFill=0;edgeStyle=orthogonalEdgeStyle;rounded=0;exitX=0;exitY=0.5;exitDx=0;exitDy=0;entryX=0.25;entryY=0;entryDx=0;entryDy=0;" edge="1" parent="1" source="6xVW4j3KkFThEF_lXin_-87" target="6xVW4j3KkFThEF_lXin_-72">
          <mxGeometry relative="1" as="geometry">
            <mxPoint x="330" y="-770" as="sourcePoint" />
            <mxPoint x="490" y="-770" as="targetPoint" />
          </mxGeometry>
        </mxCell>
        <mxCell id="6xVW4j3KkFThEF_lXin_-89" value="1" style="edgeLabel;resizable=0;html=1;align=left;verticalAlign=top;" connectable="0" vertex="1" parent="6xVW4j3KkFThEF_lXin_-88">
          <mxGeometry x="-1" relative="1" as="geometry">
            <mxPoint x="-15" y="-27" as="offset" />
          </mxGeometry>
        </mxCell>
        <mxCell id="6xVW4j3KkFThEF_lXin_-95" value="Drives" style="endArrow=open;html=1;endSize=12;startArrow=diamondThin;startSize=14;startFill=0;edgeStyle=orthogonalEdgeStyle;rounded=0;exitX=0.369;exitY=1.022;exitDx=0;exitDy=0;exitPerimeter=0;entryX=0.5;entryY=0;entryDx=0;entryDy=0;" edge="1" parent="1" source="6xVW4j3KkFThEF_lXin_-87" target="6xVW4j3KkFThEF_lXin_-76">
          <mxGeometry relative="1" as="geometry">
            <mxPoint x="220" y="-720" as="sourcePoint" />
            <mxPoint x="380" y="-720" as="targetPoint" />
          </mxGeometry>
        </mxCell>
        <mxCell id="6xVW4j3KkFThEF_lXin_-96" value="1" style="edgeLabel;resizable=0;html=1;align=left;verticalAlign=top;" connectable="0" vertex="1" parent="6xVW4j3KkFThEF_lXin_-95">
          <mxGeometry x="-1" relative="1" as="geometry">
            <mxPoint x="6" as="offset" />
          </mxGeometry>
        </mxCell>
        <mxCell id="6xVW4j3KkFThEF_lXin_-98" value="Drives" style="endArrow=open;html=1;endSize=12;startArrow=diamondThin;startSize=14;startFill=0;edgeStyle=orthogonalEdgeStyle;rounded=0;exitX=1;exitY=0.5;exitDx=0;exitDy=0;entryX=0.5;entryY=0;entryDx=0;entryDy=0;" edge="1" parent="1" source="6xVW4j3KkFThEF_lXin_-87" target="6xVW4j3KkFThEF_lXin_-80">
          <mxGeometry relative="1" as="geometry">
            <mxPoint x="640" y="-800" as="sourcePoint" />
            <mxPoint x="651" y="-655" as="targetPoint" />
          </mxGeometry>
        </mxCell>
        <mxCell id="6xVW4j3KkFThEF_lXin_-99" value="1" style="edgeLabel;resizable=0;html=1;align=left;verticalAlign=top;" connectable="0" vertex="1" parent="6xVW4j3KkFThEF_lXin_-98">
          <mxGeometry x="-1" relative="1" as="geometry" />
        </mxCell>
        <mxCell id="6xVW4j3KkFThEF_lXin_-101" value="1" style="edgeLabel;resizable=0;html=1;align=left;verticalAlign=top;" connectable="0" vertex="1" parent="1">
          <mxGeometry x="488" y="-744" as="geometry" />
        </mxCell>
        <mxCell id="6xVW4j3KkFThEF_lXin_-102" value="1" style="edgeLabel;resizable=0;html=1;align=left;verticalAlign=top;" connectable="0" vertex="1" parent="1">
          <mxGeometry x="238" y="-731" as="geometry" />
        </mxCell>
        <mxCell id="6xVW4j3KkFThEF_lXin_-103" value="1" style="edgeLabel;resizable=0;html=1;align=left;verticalAlign=top;" connectable="0" vertex="1" parent="1">
          <mxGeometry x="721" y="-750" as="geometry" />
        </mxCell>
        <mxCell id="6xVW4j3KkFThEF_lXin_-116" value="1" style="endArrow=open;html=1;endSize=12;startArrow=diamondThin;startSize=14;startFill=0;edgeStyle=orthogonalEdgeStyle;align=left;verticalAlign=bottom;rounded=0;exitX=0.252;exitY=1.038;exitDx=0;exitDy=0;exitPerimeter=0;entryX=0.75;entryY=0;entryDx=0;entryDy=0;" edge="1" parent="1" source="6xVW4j3KkFThEF_lXin_-114" target="6xVW4j3KkFThEF_lXin_-119">
          <mxGeometry x="-0.6876" y="-10" relative="1" as="geometry">
            <mxPoint x="450" y="-240" as="sourcePoint" />
            <mxPoint x="436.7199999999998" y="-195.4000000000001" as="targetPoint" />
            <mxPoint as="offset" />
          </mxGeometry>
        </mxCell>
        <mxCell id="6xVW4j3KkFThEF_lXin_-117" value="1" style="endArrow=open;html=1;endSize=12;startArrow=diamondThin;startSize=14;startFill=0;edgeStyle=orthogonalEdgeStyle;align=left;verticalAlign=bottom;rounded=0;exitX=1;exitY=0.5;exitDx=0;exitDy=0;entryX=0.25;entryY=0;entryDx=0;entryDy=0;" edge="1" parent="1" source="6xVW4j3KkFThEF_lXin_-114" target="fIdsKdYH5hgE794KYIwS-36">
          <mxGeometry x="-0.8804" y="3" relative="1" as="geometry">
            <mxPoint x="593" y="-250" as="sourcePoint" />
            <mxPoint x="550" y="-82" as="targetPoint" />
            <mxPoint as="offset" />
          </mxGeometry>
        </mxCell>
        <mxCell id="6xVW4j3KkFThEF_lXin_-118" value="1" style="endArrow=open;html=1;endSize=12;startArrow=diamondThin;startSize=14;startFill=0;edgeStyle=orthogonalEdgeStyle;align=left;verticalAlign=bottom;rounded=0;exitX=0.748;exitY=0.965;exitDx=0;exitDy=0;entryX=0.5;entryY=0;entryDx=0;entryDy=0;exitPerimeter=0;" edge="1" parent="1" source="6xVW4j3KkFThEF_lXin_-114" target="fIdsKdYH5hgE794KYIwS-46">
          <mxGeometry x="-0.7449" y="10" relative="1" as="geometry">
            <mxPoint x="550" y="-340" as="sourcePoint" />
            <mxPoint x="708" y="-163" as="targetPoint" />
            <mxPoint as="offset" />
          </mxGeometry>
        </mxCell>
        <mxCell id="6xVW4j3KkFThEF_lXin_-119" value="Doctors" style="swimlane;fontStyle=1;align=center;verticalAlign=top;childLayout=stackLayout;horizontal=1;startSize=26;horizontalStack=0;resizeParent=1;resizeParentMax=0;resizeLast=0;collapsible=1;marginBottom=0;whiteSpace=wrap;html=1;" vertex="1" parent="1">
          <mxGeometry x="310" y="-200" width="160" height="86" as="geometry" />
        </mxCell>
        <mxCell id="6xVW4j3KkFThEF_lXin_-120" value="&lt;div&gt;&lt;p style=&quot;margin: 0px 0px 0px 4px;&quot;&gt;+ doctors: List&amp;lt;Doctor&amp;gt;&lt;/p&gt;&lt;/div&gt;" style="text;strokeColor=none;fillColor=none;align=left;verticalAlign=top;spacingLeft=4;spacingRight=4;overflow=hidden;rotatable=0;points=[[0,0.5],[1,0.5]];portConstraint=eastwest;whiteSpace=wrap;html=1;" vertex="1" parent="6xVW4j3KkFThEF_lXin_-119">
          <mxGeometry y="26" width="160" height="26" as="geometry" />
        </mxCell>
        <mxCell id="6xVW4j3KkFThEF_lXin_-121" value="" style="line;strokeWidth=1;fillColor=none;align=left;verticalAlign=middle;spacingTop=-1;spacingLeft=3;spacingRight=3;rotatable=0;labelPosition=right;points=[];portConstraint=eastwest;strokeColor=inherit;" vertex="1" parent="6xVW4j3KkFThEF_lXin_-119">
          <mxGeometry y="52" width="160" height="8" as="geometry" />
        </mxCell>
        <mxCell id="6xVW4j3KkFThEF_lXin_-122" value="+ findDoctor(): Type" style="text;strokeColor=none;fillColor=none;align=left;verticalAlign=top;spacingLeft=4;spacingRight=4;overflow=hidden;rotatable=0;points=[[0,0.5],[1,0.5]];portConstraint=eastwest;whiteSpace=wrap;html=1;" vertex="1" parent="6xVW4j3KkFThEF_lXin_-119">
          <mxGeometry y="60" width="160" height="26" as="geometry" />
        </mxCell>
        <mxCell id="6xVW4j3KkFThEF_lXin_-123" value="Patient" style="swimlane;fontStyle=1;align=center;verticalAlign=top;childLayout=stackLayout;horizontal=1;startSize=26;horizontalStack=0;resizeParent=1;resizeParentMax=0;resizeLast=0;collapsible=1;marginBottom=0;whiteSpace=wrap;html=1;" vertex="1" parent="1">
          <mxGeometry x="-270" y="310" width="160" height="138" as="geometry" />
        </mxCell>
        <mxCell id="6xVW4j3KkFThEF_lXin_-124" value="+ field: type" style="text;strokeColor=none;fillColor=none;align=left;verticalAlign=top;spacingLeft=4;spacingRight=4;overflow=hidden;rotatable=0;points=[[0,0.5],[1,0.5]];portConstraint=eastwest;whiteSpace=wrap;html=1;" vertex="1" parent="6xVW4j3KkFThEF_lXin_-123">
          <mxGeometry y="26" width="160" height="26" as="geometry" />
        </mxCell>
        <mxCell id="6xVW4j3KkFThEF_lXin_-127" value="+ field: type" style="text;strokeColor=none;fillColor=none;align=left;verticalAlign=top;spacingLeft=4;spacingRight=4;overflow=hidden;rotatable=0;points=[[0,0.5],[1,0.5]];portConstraint=eastwest;whiteSpace=wrap;html=1;" vertex="1" parent="6xVW4j3KkFThEF_lXin_-123">
          <mxGeometry y="52" width="160" height="26" as="geometry" />
        </mxCell>
        <mxCell id="6xVW4j3KkFThEF_lXin_-128" value="+ field: type" style="text;strokeColor=none;fillColor=none;align=left;verticalAlign=top;spacingLeft=4;spacingRight=4;overflow=hidden;rotatable=0;points=[[0,0.5],[1,0.5]];portConstraint=eastwest;whiteSpace=wrap;html=1;" vertex="1" parent="6xVW4j3KkFThEF_lXin_-123">
          <mxGeometry y="78" width="160" height="26" as="geometry" />
        </mxCell>
        <mxCell id="6xVW4j3KkFThEF_lXin_-125" value="" style="line;strokeWidth=1;fillColor=none;align=left;verticalAlign=middle;spacingTop=-1;spacingLeft=3;spacingRight=3;rotatable=0;labelPosition=right;points=[];portConstraint=eastwest;strokeColor=inherit;" vertex="1" parent="6xVW4j3KkFThEF_lXin_-123">
          <mxGeometry y="104" width="160" height="8" as="geometry" />
        </mxCell>
        <mxCell id="6xVW4j3KkFThEF_lXin_-126" value="+ method(type): type" style="text;strokeColor=none;fillColor=none;align=left;verticalAlign=top;spacingLeft=4;spacingRight=4;overflow=hidden;rotatable=0;points=[[0,0.5],[1,0.5]];portConstraint=eastwest;whiteSpace=wrap;html=1;" vertex="1" parent="6xVW4j3KkFThEF_lXin_-123">
          <mxGeometry y="112" width="160" height="26" as="geometry" />
        </mxCell>
        <mxCell id="6xVW4j3KkFThEF_lXin_-129" value="" style="endArrow=open;html=1;endSize=12;startArrow=diamondThin;startSize=14;startFill=0;edgeStyle=orthogonalEdgeStyle;rounded=0;exitX=0.019;exitY=0.077;exitDx=0;exitDy=0;entryX=0.981;entryY=0.138;entryDx=0;entryDy=0;entryPerimeter=0;exitPerimeter=0;" edge="1" parent="1" source="fIdsKdYH5hgE794KYIwS-26" target="6xVW4j3KkFThEF_lXin_-123">
          <mxGeometry relative="1" as="geometry">
            <mxPoint x="130" y="404" as="sourcePoint" />
            <mxPoint x="-20" y="260" as="targetPoint" />
          </mxGeometry>
        </mxCell>
        <mxCell id="6xVW4j3KkFThEF_lXin_-130" value="1" style="edgeLabel;resizable=0;html=1;align=left;verticalAlign=top;" connectable="0" vertex="1" parent="6xVW4j3KkFThEF_lXin_-129">
          <mxGeometry x="-1" relative="1" as="geometry">
            <mxPoint x="-15" y="2" as="offset" />
          </mxGeometry>
        </mxCell>
        <mxCell id="6xVW4j3KkFThEF_lXin_-131" value="1" style="edgeLabel;resizable=0;html=1;align=right;verticalAlign=top;" connectable="0" vertex="1" parent="6xVW4j3KkFThEF_lXin_-129">
          <mxGeometry x="1" relative="1" as="geometry">
            <mxPoint x="22" y="-22" as="offset" />
          </mxGeometry>
        </mxCell>
        <mxCell id="6xVW4j3KkFThEF_lXin_-132" value="DoctorsServicesTest" style="swimlane;fontStyle=1;align=center;verticalAlign=top;childLayout=stackLayout;horizontal=1;startSize=26;horizontalStack=0;resizeParent=1;resizeParentMax=0;resizeLast=0;collapsible=1;marginBottom=0;whiteSpace=wrap;html=1;" vertex="1" parent="1">
          <mxGeometry x="-150" y="-600" width="210" height="86" as="geometry" />
        </mxCell>
        <mxCell id="6xVW4j3KkFThEF_lXin_-133" value="- doctorsServices: DoctorsServices" style="text;strokeColor=none;fillColor=none;align=left;verticalAlign=top;spacingLeft=4;spacingRight=4;overflow=hidden;rotatable=0;points=[[0,0.5],[1,0.5]];portConstraint=eastwest;whiteSpace=wrap;html=1;" vertex="1" parent="6xVW4j3KkFThEF_lXin_-132">
          <mxGeometry y="26" width="210" height="26" as="geometry" />
        </mxCell>
        <mxCell id="6xVW4j3KkFThEF_lXin_-134" value="" style="line;strokeWidth=1;fillColor=none;align=left;verticalAlign=middle;spacingTop=-1;spacingLeft=3;spacingRight=3;rotatable=0;labelPosition=right;points=[];portConstraint=eastwest;strokeColor=inherit;" vertex="1" parent="6xVW4j3KkFThEF_lXin_-132">
          <mxGeometry y="52" width="210" height="8" as="geometry" />
        </mxCell>
        <mxCell id="6xVW4j3KkFThEF_lXin_-135" value="+ allTestCases(): void" style="text;strokeColor=none;fillColor=none;align=left;verticalAlign=top;spacingLeft=4;spacingRight=4;overflow=hidden;rotatable=0;points=[[0,0.5],[1,0.5]];portConstraint=eastwest;whiteSpace=wrap;html=1;" vertex="1" parent="6xVW4j3KkFThEF_lXin_-132">
          <mxGeometry y="60" width="210" height="26" as="geometry" />
        </mxCell>
        <mxCell id="6xVW4j3KkFThEF_lXin_-138" value="" style="endArrow=open;html=1;endSize=12;startArrow=diamondThin;startSize=14;startFill=0;edgeStyle=orthogonalEdgeStyle;align=left;verticalAlign=bottom;rounded=0;exitX=1.008;exitY=0.107;exitDx=0;exitDy=0;entryX=0;entryY=0.25;entryDx=0;entryDy=0;exitPerimeter=0;" edge="1" parent="1" source="6xVW4j3KkFThEF_lXin_-132" target="6xVW4j3KkFThEF_lXin_-45">
          <mxGeometry x="-1" y="3" relative="1" as="geometry">
            <mxPoint x="240" y="-270" as="sourcePoint" />
            <mxPoint x="640" y="-207" as="targetPoint" />
          </mxGeometry>
        </mxCell>
        <mxCell id="6xVW4j3KkFThEF_lXin_-139" value="creates" style="edgeLabel;html=1;align=center;verticalAlign=middle;resizable=0;points=[];" vertex="1" connectable="0" parent="6xVW4j3KkFThEF_lXin_-138">
          <mxGeometry x="-0.098" y="2" relative="1" as="geometry">
            <mxPoint as="offset" />
          </mxGeometry>
        </mxCell>
        <mxCell id="6xVW4j3KkFThEF_lXin_-140" value="AdminsServicesTest" style="swimlane;fontStyle=1;align=center;verticalAlign=top;childLayout=stackLayout;horizontal=1;startSize=26;horizontalStack=0;resizeParent=1;resizeParentMax=0;resizeLast=0;collapsible=1;marginBottom=0;whiteSpace=wrap;html=1;" vertex="1" parent="1">
          <mxGeometry x="1200" y="-584" width="160" height="86" as="geometry" />
        </mxCell>
        <mxCell id="6xVW4j3KkFThEF_lXin_-141" value="- admins: Admin" style="text;strokeColor=none;fillColor=none;align=left;verticalAlign=top;spacingLeft=4;spacingRight=4;overflow=hidden;rotatable=0;points=[[0,0.5],[1,0.5]];portConstraint=eastwest;whiteSpace=wrap;html=1;" vertex="1" parent="6xVW4j3KkFThEF_lXin_-140">
          <mxGeometry y="26" width="160" height="26" as="geometry" />
        </mxCell>
        <mxCell id="6xVW4j3KkFThEF_lXin_-142" value="" style="line;strokeWidth=1;fillColor=none;align=left;verticalAlign=middle;spacingTop=-1;spacingLeft=3;spacingRight=3;rotatable=0;labelPosition=right;points=[];portConstraint=eastwest;strokeColor=inherit;" vertex="1" parent="6xVW4j3KkFThEF_lXin_-140">
          <mxGeometry y="52" width="160" height="8" as="geometry" />
        </mxCell>
        <mxCell id="6xVW4j3KkFThEF_lXin_-143" value="+ allTestCases(): void" style="text;strokeColor=none;fillColor=none;align=left;verticalAlign=top;spacingLeft=4;spacingRight=4;overflow=hidden;rotatable=0;points=[[0,0.5],[1,0.5]];portConstraint=eastwest;whiteSpace=wrap;html=1;" vertex="1" parent="6xVW4j3KkFThEF_lXin_-140">
          <mxGeometry y="60" width="160" height="26" as="geometry" />
        </mxCell>
        <mxCell id="6xVW4j3KkFThEF_lXin_-144" value="" style="endArrow=open;html=1;endSize=12;startArrow=diamondThin;startSize=14;startFill=0;edgeStyle=orthogonalEdgeStyle;align=left;verticalAlign=bottom;rounded=0;exitX=0;exitY=0.25;exitDx=0;exitDy=0;entryX=0.75;entryY=0;entryDx=0;entryDy=0;" edge="1" parent="1" source="6xVW4j3KkFThEF_lXin_-140" target="6xVW4j3KkFThEF_lXin_-49">
          <mxGeometry x="-1" y="3" relative="1" as="geometry">
            <mxPoint x="880" y="-550" as="sourcePoint" />
            <mxPoint x="998" y="-467" as="targetPoint" />
          </mxGeometry>
        </mxCell>
        <mxCell id="6xVW4j3KkFThEF_lXin_-145" value="creates" style="edgeLabel;html=1;align=center;verticalAlign=middle;resizable=0;points=[];" vertex="1" connectable="0" parent="6xVW4j3KkFThEF_lXin_-144">
          <mxGeometry x="-0.098" y="2" relative="1" as="geometry">
            <mxPoint as="offset" />
          </mxGeometry>
        </mxCell>
        <mxCell id="6xVW4j3KkFThEF_lXin_-146" value="PharmacistsServicesTest" style="swimlane;fontStyle=1;align=center;verticalAlign=top;childLayout=stackLayout;horizontal=1;startSize=26;horizontalStack=0;resizeParent=1;resizeParentMax=0;resizeLast=0;collapsible=1;marginBottom=0;whiteSpace=wrap;html=1;" vertex="1" parent="1">
          <mxGeometry x="1030" y="-450" width="160" height="86" as="geometry" />
        </mxCell>
        <mxCell id="6xVW4j3KkFThEF_lXin_-147" value="- admins: Admin" style="text;strokeColor=none;fillColor=none;align=left;verticalAlign=top;spacingLeft=4;spacingRight=4;overflow=hidden;rotatable=0;points=[[0,0.5],[1,0.5]];portConstraint=eastwest;whiteSpace=wrap;html=1;" vertex="1" parent="6xVW4j3KkFThEF_lXin_-146">
          <mxGeometry y="26" width="160" height="26" as="geometry" />
        </mxCell>
        <mxCell id="6xVW4j3KkFThEF_lXin_-148" value="" style="line;strokeWidth=1;fillColor=none;align=left;verticalAlign=middle;spacingTop=-1;spacingLeft=3;spacingRight=3;rotatable=0;labelPosition=right;points=[];portConstraint=eastwest;strokeColor=inherit;" vertex="1" parent="6xVW4j3KkFThEF_lXin_-146">
          <mxGeometry y="52" width="160" height="8" as="geometry" />
        </mxCell>
        <mxCell id="6xVW4j3KkFThEF_lXin_-149" value="+ allTestCases(): void" style="text;strokeColor=none;fillColor=none;align=left;verticalAlign=top;spacingLeft=4;spacingRight=4;overflow=hidden;rotatable=0;points=[[0,0.5],[1,0.5]];portConstraint=eastwest;whiteSpace=wrap;html=1;" vertex="1" parent="6xVW4j3KkFThEF_lXin_-146">
          <mxGeometry y="60" width="160" height="26" as="geometry" />
        </mxCell>
        <mxCell id="6xVW4j3KkFThEF_lXin_-150" value="" style="endArrow=open;html=1;endSize=12;startArrow=diamondThin;startSize=14;startFill=0;edgeStyle=orthogonalEdgeStyle;align=left;verticalAlign=bottom;rounded=0;exitX=0;exitY=0.25;exitDx=0;exitDy=0;entryX=1;entryY=0.25;entryDx=0;entryDy=0;" edge="1" parent="1" source="6xVW4j3KkFThEF_lXin_-146" target="6xVW4j3KkFThEF_lXin_-53">
          <mxGeometry x="-1" y="3" relative="1" as="geometry">
            <mxPoint x="1540" y="-570" as="sourcePoint" />
            <mxPoint x="1030" y="-538" as="targetPoint" />
          </mxGeometry>
        </mxCell>
        <mxCell id="6xVW4j3KkFThEF_lXin_-151" value="creates" style="edgeLabel;html=1;align=center;verticalAlign=middle;resizable=0;points=[];" vertex="1" connectable="0" parent="6xVW4j3KkFThEF_lXin_-150">
          <mxGeometry x="-0.098" y="2" relative="1" as="geometry">
            <mxPoint as="offset" />
          </mxGeometry>
        </mxCell>
        <mxCell id="6xVW4j3KkFThEF_lXin_-152" value="" style="endArrow=open;html=1;endSize=12;startArrow=diamondThin;startSize=14;startFill=0;edgeStyle=orthogonalEdgeStyle;align=left;verticalAlign=bottom;rounded=0;exitX=0.818;exitY=1.009;exitDx=0;exitDy=0;entryX=0.25;entryY=0;entryDx=0;entryDy=0;exitPerimeter=0;" edge="1" parent="1" source="6xVW4j3KkFThEF_lXin_-75" target="6xVW4j3KkFThEF_lXin_-45">
          <mxGeometry x="-1" y="3" relative="1" as="geometry">
            <mxPoint x="960" y="-290" as="sourcePoint" />
            <mxPoint x="450" y="-258" as="targetPoint" />
          </mxGeometry>
        </mxCell>
        <mxCell id="6xVW4j3KkFThEF_lXin_-154" value="1" style="edgeLabel;html=1;align=center;verticalAlign=middle;resizable=0;points=[];" vertex="1" connectable="0" parent="6xVW4j3KkFThEF_lXin_-152">
          <mxGeometry x="-0.8749" y="3" relative="1" as="geometry">
            <mxPoint x="6" y="3" as="offset" />
          </mxGeometry>
        </mxCell>
        <mxCell id="6xVW4j3KkFThEF_lXin_-155" value="1" style="edgeLabel;html=1;align=center;verticalAlign=middle;resizable=0;points=[];" vertex="1" connectable="0" parent="1">
          <mxGeometry x="240" y="-539" as="geometry" />
        </mxCell>
        <mxCell id="6xVW4j3KkFThEF_lXin_-156" value="" style="endArrow=open;html=1;endSize=12;startArrow=diamondThin;startSize=14;startFill=0;edgeStyle=orthogonalEdgeStyle;align=left;verticalAlign=bottom;rounded=0;exitX=0.462;exitY=0.991;exitDx=0;exitDy=0;entryX=0.5;entryY=0;entryDx=0;entryDy=0;exitPerimeter=0;" edge="1" parent="1" source="6xVW4j3KkFThEF_lXin_-79" target="6xVW4j3KkFThEF_lXin_-49">
          <mxGeometry x="-1" y="3" relative="1" as="geometry">
            <mxPoint x="438" y="-580" as="sourcePoint" />
            <mxPoint x="347" y="-495" as="targetPoint" />
          </mxGeometry>
        </mxCell>
        <mxCell id="6xVW4j3KkFThEF_lXin_-157" value="1" style="edgeLabel;html=1;align=center;verticalAlign=middle;resizable=0;points=[];" vertex="1" connectable="0" parent="6xVW4j3KkFThEF_lXin_-156">
          <mxGeometry x="-0.8749" y="3" relative="1" as="geometry">
            <mxPoint x="6" y="3" as="offset" />
          </mxGeometry>
        </mxCell>
        <mxCell id="6xVW4j3KkFThEF_lXin_-158" value="1" style="edgeLabel;html=1;align=center;verticalAlign=middle;resizable=0;points=[];" vertex="1" connectable="0" parent="1">
          <mxGeometry x="520" y="-540" as="geometry" />
        </mxCell>
        <mxCell id="6xVW4j3KkFThEF_lXin_-159" value="" style="endArrow=open;html=1;endSize=12;startArrow=diamondThin;startSize=14;startFill=0;edgeStyle=orthogonalEdgeStyle;align=left;verticalAlign=bottom;rounded=0;exitX=0.475;exitY=0.962;exitDx=0;exitDy=0;entryX=0.5;entryY=0;entryDx=0;entryDy=0;exitPerimeter=0;" edge="1" parent="1" source="6xVW4j3KkFThEF_lXin_-83" target="6xVW4j3KkFThEF_lXin_-53">
          <mxGeometry x="-1" y="3" relative="1" as="geometry">
            <mxPoint x="644" y="-580" as="sourcePoint" />
            <mxPoint x="680" y="-487" as="targetPoint" />
          </mxGeometry>
        </mxCell>
        <mxCell id="6xVW4j3KkFThEF_lXin_-160" value="1" style="edgeLabel;html=1;align=center;verticalAlign=middle;resizable=0;points=[];" vertex="1" connectable="0" parent="6xVW4j3KkFThEF_lXin_-159">
          <mxGeometry x="-0.8749" y="3" relative="1" as="geometry">
            <mxPoint x="6" y="3" as="offset" />
          </mxGeometry>
        </mxCell>
        <mxCell id="6xVW4j3KkFThEF_lXin_-161" value="1" style="edgeLabel;html=1;align=center;verticalAlign=middle;resizable=0;points=[];" vertex="1" connectable="0" parent="1">
          <mxGeometry x="770" y="-540" as="geometry" />
        </mxCell>
        <mxCell id="6xVW4j3KkFThEF_lXin_-162" value="" style="endArrow=open;html=1;endSize=12;startArrow=diamondThin;startSize=14;startFill=0;edgeStyle=orthogonalEdgeStyle;rounded=0;entryX=0.5;entryY=0;entryDx=0;entryDy=0;exitX=0.579;exitY=0.992;exitDx=0;exitDy=0;exitPerimeter=0;" edge="1" parent="1" source="6xVW4j3KkFThEF_lXin_-48" target="6xVW4j3KkFThEF_lXin_-119">
          <mxGeometry relative="1" as="geometry">
            <mxPoint x="320" y="-400" as="sourcePoint" />
            <mxPoint x="364" y="-286" as="targetPoint" />
          </mxGeometry>
        </mxCell>
        <mxCell id="6xVW4j3KkFThEF_lXin_-163" value="1" style="edgeLabel;resizable=0;html=1;align=left;verticalAlign=top;" connectable="0" vertex="1" parent="6xVW4j3KkFThEF_lXin_-162">
          <mxGeometry x="-1" relative="1" as="geometry">
            <mxPoint x="10" as="offset" />
          </mxGeometry>
        </mxCell>
        <mxCell id="6xVW4j3KkFThEF_lXin_-164" value="1" style="edgeLabel;resizable=0;html=1;align=right;verticalAlign=top;" connectable="0" vertex="1" parent="6xVW4j3KkFThEF_lXin_-162">
          <mxGeometry x="1" relative="1" as="geometry">
            <mxPoint x="17" y="-22" as="offset" />
          </mxGeometry>
        </mxCell>
        <mxCell id="6xVW4j3KkFThEF_lXin_-165" value="" style="endArrow=open;html=1;endSize=12;startArrow=diamondThin;startSize=14;startFill=0;edgeStyle=orthogonalEdgeStyle;rounded=0;entryX=0.75;entryY=0;entryDx=0;entryDy=0;exitX=0.889;exitY=0.964;exitDx=0;exitDy=0;exitPerimeter=0;" edge="1" parent="1" target="fIdsKdYH5hgE794KYIwS-36">
          <mxGeometry relative="1" as="geometry">
            <mxPoint x="867.4700000000003" y="-418.9359999999999" as="sourcePoint" />
            <mxPoint x="840" y="-6" as="targetPoint" />
          </mxGeometry>
        </mxCell>
        <mxCell id="6xVW4j3KkFThEF_lXin_-166" value="1" style="edgeLabel;resizable=0;html=1;align=left;verticalAlign=top;" connectable="0" vertex="1" parent="6xVW4j3KkFThEF_lXin_-165">
          <mxGeometry x="-1" relative="1" as="geometry">
            <mxPoint x="10" as="offset" />
          </mxGeometry>
        </mxCell>
        <mxCell id="6xVW4j3KkFThEF_lXin_-167" value="1" style="edgeLabel;resizable=0;html=1;align=right;verticalAlign=top;" connectable="0" vertex="1" parent="6xVW4j3KkFThEF_lXin_-165">
          <mxGeometry x="1" relative="1" as="geometry">
            <mxPoint x="16" y="-22" as="offset" />
          </mxGeometry>
        </mxCell>
        <mxCell id="6xVW4j3KkFThEF_lXin_-171" value="1" style="endArrow=open;html=1;endSize=12;startArrow=diamondThin;startSize=14;startFill=0;edgeStyle=orthogonalEdgeStyle;align=left;verticalAlign=bottom;rounded=0;exitX=0;exitY=0.5;exitDx=0;exitDy=0;entryX=0.5;entryY=0;entryDx=0;entryDy=0;" edge="1" parent="1" source="6xVW4j3KkFThEF_lXin_-48" target="fIdsKdYH5hgE794KYIwS-53">
          <mxGeometry x="-1" y="3" relative="1" as="geometry">
            <mxPoint x="110" y="-240" as="sourcePoint" />
            <mxPoint x="270" y="-240" as="targetPoint" />
          </mxGeometry>
        </mxCell>
        <mxCell id="6xVW4j3KkFThEF_lXin_-172" value="" style="endArrow=open;html=1;endSize=12;startArrow=diamondThin;startSize=14;startFill=0;edgeStyle=orthogonalEdgeStyle;rounded=0;exitX=0.345;exitY=1.112;exitDx=0;exitDy=0;exitPerimeter=0;" edge="1" parent="1" source="6xVW4j3KkFThEF_lXin_-115" target="fIdsKdYH5hgE794KYIwS-53">
          <mxGeometry relative="1" as="geometry">
            <mxPoint x="240" y="-220" as="sourcePoint" />
            <mxPoint x="334" y="24" as="targetPoint" />
            <Array as="points">
              <mxPoint x="746" y="-330" />
              <mxPoint x="200" y="-330" />
            </Array>
          </mxGeometry>
        </mxCell>
        <mxCell id="6xVW4j3KkFThEF_lXin_-173" value="1" style="edgeLabel;resizable=0;html=1;align=left;verticalAlign=top;" connectable="0" vertex="1" parent="6xVW4j3KkFThEF_lXin_-172">
          <mxGeometry x="-1" relative="1" as="geometry">
            <mxPoint x="10" as="offset" />
          </mxGeometry>
        </mxCell>
        <mxCell id="6xVW4j3KkFThEF_lXin_-174" value="1" style="edgeLabel;resizable=0;html=1;align=right;verticalAlign=top;" connectable="0" vertex="1" parent="6xVW4j3KkFThEF_lXin_-172">
          <mxGeometry x="1" relative="1" as="geometry">
            <mxPoint x="17" y="-22" as="offset" />
          </mxGeometry>
        </mxCell>
      </root>
    </mxGraphModel>
  </diagram>
</mxfile>
